<?xml version="1.0" encoding="UTF-8" standalone="no"?>
<!DOCTYPE svg PUBLIC "-//W3C//DTD SVG 1.1//EN" "http://www.w3.org/Graphics/SVG/1.1/DTD/svg11.dtd">
<svg width="100%" height="100%" viewBox="0 0 900 900" version="1.1" xmlns="http://www.w3.org/2000/svg" xmlns:xlink="http://www.w3.org/1999/xlink" xml:space="preserve" xmlns:serif="http://www.serif.com/" style="fill-rule:evenodd;clip-rule:evenodd;stroke-linejoin:round;stroke-miterlimit:2;">
    <g transform="matrix(1,0,0,1,-7551,-2090)">
        <g id="Calque1">
        </g>
        <g>
            <path d="M7767.07,2365.68L7767.07,2312.3L7987.87,2313.67L7987.87,2287.77C7952.39,2280.55 7925.66,2249.15 7925.66,2211.56C7925.66,2168.63 7960.5,2133.79 8003.43,2133.79C8046.35,2133.79 8081.2,2168.63 8081.2,2211.56C8081.2,2248.53 8055.34,2279.51 8020.74,2287.39L8020.74,2314.69L8241.54,2313.32L8241.54,2366.69L8249.75,2366.69L8225.11,2415.99L8200.46,2366.69L8208.67,2366.69L8208.67,2346.38L8020.74,2347.55L8020.74,2365.68L8028.95,2365.68L8004.31,2414.97L7979.66,2365.68L7987.87,2365.68L7987.87,2346.54L7799.94,2345.37L7799.94,2365.68L7808.15,2365.68L7783.5,2414.97L7758.86,2365.68L7767.07,2365.68Z"/>
            <path d="M7859.49,2636.96L7705.81,2636.96L7705.81,2700.46L7859.49,2700.46L7859.49,2636.96ZM8081.2,2636.96L7927.51,2636.96L7927.51,2700.46L8081.2,2700.46L8081.2,2636.96ZM8302.34,2636.96L8148.65,2636.96L8148.65,2700.46L8302.34,2700.46L8302.34,2636.96ZM7859.4,2564.85L7705.71,2564.85L7705.71,2628.36L7859.4,2628.36L7859.4,2564.85ZM8081.11,2564.85L7927.41,2564.85L7927.41,2628.36L8081.11,2628.36L8081.11,2564.85ZM8302.25,2564.85L8148.56,2564.85L8148.56,2628.36L8302.25,2628.36L8302.25,2564.85ZM7859.49,2492.74L7705.81,2492.74L7705.81,2556.25L7859.49,2556.25L7859.49,2492.74ZM8081.2,2492.74L7927.51,2492.74L7927.51,2556.25L8081.2,2556.25L8081.2,2492.74ZM8302.34,2492.74L8148.65,2492.74L8148.65,2556.25L8302.34,2556.25L8302.34,2492.74ZM7859.49,2420.49L7705.81,2420.49L7705.81,2483.99L7859.49,2483.99L7859.49,2420.49ZM8081.2,2420.49L7927.51,2420.49L7927.51,2483.99L8081.2,2483.99L8081.2,2420.49ZM8302.34,2420.49L8148.65,2420.49L8148.65,2483.99L8302.34,2483.99L8302.34,2420.49Z"/>
            <path d="M7798.99,2739.36L7807.2,2739.36L7782.56,2788.66L7757.91,2739.36L7766.13,2739.36L7766.13,2704.76L7798.99,2704.76L7798.99,2739.36ZM8020.74,2739.36L8028.95,2739.36L8004.31,2788.66L7979.66,2739.36L7987.87,2739.36L7987.87,2704.76L8020.74,2704.76L8020.74,2739.36ZM8208.67,2739.36L8208.67,2704.76L8241.54,2704.76L8241.54,2739.36L8249.75,2739.36L8225.11,2788.66L8200.46,2739.36L8208.67,2739.36Z"/>
            <g transform="matrix(0.566539,0,0,0.549187,1928.77,1993.74)">
                <path d="M10332.1,1445.22C10254.5,1445.22 10191.5,1510.25 10191.5,1590.35C10191.5,1670.44 10254.5,1735.47 10332.1,1735.47C10409.8,1735.47 10472.8,1670.44 10472.8,1590.35C10472.8,1510.25 10409.8,1445.22 10332.1,1445.22ZM10332.1,1479.99C10391.2,1479.99 10439.1,1529.44 10439.1,1590.35C10439.1,1651.25 10391.2,1700.7 10332.1,1700.7C10273.1,1700.7 10225.2,1651.25 10225.2,1590.35C10225.2,1529.44 10273.1,1479.99 10332.1,1479.99Z"/>
            </g>
            <g transform="matrix(0.566539,0,0,0.549187,2149.87,1993.74)">
                <path d="M10332.1,1445.22C10254.5,1445.22 10191.5,1510.25 10191.5,1590.35C10191.5,1670.44 10254.5,1735.47 10332.1,1735.47C10409.8,1735.47 10472.8,1670.44 10472.8,1590.35C10472.8,1510.25 10409.8,1445.22 10332.1,1445.22ZM10332.1,1479.99C10391.2,1479.99 10439.1,1529.44 10439.1,1590.35C10439.1,1651.25 10391.2,1700.7 10332.1,1700.7C10273.1,1700.7 10225.2,1651.25 10225.2,1590.35C10225.2,1529.44 10273.1,1479.99 10332.1,1479.99Z"/>
            </g>
            <g transform="matrix(0.566539,0,0,0.549187,2372.75,1993.74)">
                <path d="M10332.1,1445.22C10254.5,1445.22 10191.5,1510.25 10191.5,1590.35C10191.5,1670.44 10254.5,1735.47 10332.1,1735.47C10409.8,1735.47 10472.8,1670.44 10472.8,1590.35C10472.8,1510.25 10409.8,1445.22 10332.1,1445.22ZM10332.1,1479.99C10391.2,1479.99 10439.1,1529.44 10439.1,1590.35C10439.1,1651.25 10391.2,1700.7 10332.1,1700.7C10273.1,1700.7 10225.2,1651.25 10225.2,1590.35C10225.2,1529.44 10273.1,1479.99 10332.1,1479.99Z"/>
            </g>
        </g>
    </g>
</svg>
