<?xml version="1.0" encoding="UTF-8" standalone="no"?>
<!DOCTYPE svg PUBLIC "-//W3C//DTD SVG 1.1//EN" "http://www.w3.org/Graphics/SVG/1.1/DTD/svg11.dtd">
<svg width="100%" height="100%" viewBox="0 0 1166 378" version="1.1" xmlns="http://www.w3.org/2000/svg" xmlns:xlink="http://www.w3.org/1999/xlink" xml:space="preserve" xmlns:serif="http://www.serif.com/" style="fill-rule:evenodd;clip-rule:evenodd;stroke-miterlimit:1.5;">
    <g transform="matrix(1,0,0,1,-9107,-1531)">
        <g transform="matrix(1.51547,0,0,1.14101,-5514.04,-746.769)">
            <g transform="matrix(0.659861,0,0,0.876416,3252.99,322.601)">
                <g transform="matrix(1,0,0,1,21.2497,-26.728)">
                    <path d="M10803.9,2045.02C10803.9,2024.65 10795.8,2005.11 10781.4,1990.71C10767,1976.3 10747.5,1968.21 10727.1,1968.21C10476.9,1968.21 9701.68,1968.21 9701.68,1968.21L9701.68,2283L10803.9,2283L10803.9,2045.02Z" style="fill:white;stroke:black;stroke-width:34.71px;"/>
                </g>
                <g transform="matrix(1,0,0,1,17.9569,0.812521)">
                    <rect x="9722.3" y="1940.67" width="225.413" height="314.786"/>
                </g>
                <g transform="matrix(1.44887,0,0,1.44887,-4424.33,-862.142)">
                    <path d="M10038,2037.35C10038,2045.6 10037,2053.08 10034.9,2059.81C10032.9,2066.54 10029.7,2072.28 10025.4,2077.02C10021.1,2081.77 10015.6,2085.43 10008.9,2088.01C10002.1,2090.59 9994.08,2091.87 9984.69,2091.87L9957.68,2091.87L9957.68,1985.51L9989.17,1985.51C9997.31,1985.51 10004.4,1986.53 10010.5,1988.56C10016.6,1990.6 10021.7,1993.73 10025.8,1997.96C10029.9,2002.19 10032.9,2007.57 10034.9,2014.08C10037,2020.59 10038,2028.34 10038,2037.35ZM10016.5,2038.65C10016.5,2032.9 10016.1,2027.77 10015.1,2023.27C10014.2,2018.77 10012.6,2014.96 10010.5,2011.84C10008.3,2008.72 10005.3,2006.34 10001.6,2004.72C9997.93,2003.09 9993.35,2002.28 9987.87,2002.28L9977.69,2002.28L9977.69,2075.11L9986.48,2075.11C9996.3,2075.11 10003.8,2072.18 10008.9,2066.32C10014,2060.46 10016.5,2051.24 10016.5,2038.65Z" style="fill-rule:nonzero;stroke:black;stroke-opacity:0.24;stroke-width:1px;stroke-linejoin:round;stroke-miterlimit:2;"/>
                    <path d="M10125.6,2044.19C10125.6,2045.54 10125.6,2047.31 10125.5,2049.47C10125.4,2051.64 10125.3,2053.68 10125.2,2055.58L10070.8,2055.58C10070.8,2059.21 10071.4,2062.41 10072.5,2065.18C10073.6,2067.95 10075.1,2070.27 10077.2,2072.14C10079.2,2074.01 10081.7,2075.44 10084.5,2076.41C10087.4,2077.39 10090.5,2077.88 10094,2077.88C10098,2077.88 10102.3,2077.57 10106.9,2076.94C10111.5,2076.32 10116.2,2075.3 10121.2,2073.89L10121.2,2089.68C10119.1,2090.27 10116.7,2090.82 10114.3,2091.3C10111.8,2091.79 10109.2,2092.23 10106.6,2092.61C10104,2092.99 10101.4,2093.27 10098.7,2093.46C10096,2093.65 10093.5,2093.75 10091,2093.75C10084.7,2093.75 10079,2092.85 10074,2091.06C10069.1,2089.27 10064.8,2086.62 10061.4,2083.13C10057.9,2079.63 10055.2,2075.3 10053.4,2070.15C10051.5,2064.99 10050.6,2059.02 10050.6,2052.24C10050.6,2045.52 10051.5,2039.4 10053.4,2033.89C10055.2,2028.38 10057.8,2023.66 10061.2,2019.73C10064.6,2015.8 10068.6,2012.76 10073.4,2010.62C10078.2,2008.47 10083.6,2007.4 10089.5,2007.4C10095.4,2007.4 10100.6,2008.31 10105.1,2010.13C10109.6,2011.95 10113.3,2014.48 10116.4,2017.74C10119.4,2020.99 10121.7,2024.87 10123.3,2029.37C10124.9,2033.88 10125.6,2038.82 10125.6,2044.19ZM10105.5,2041.34C10105.5,2038.08 10105.1,2035.25 10104.2,2032.83C10103.4,2030.42 10102.2,2028.42 10100.7,2026.85C10099.2,2025.28 10097.5,2024.11 10095.5,2023.35C10093.5,2022.59 10091.4,2022.21 10089.1,2022.21C10084.1,2022.21 10080,2023.88 10076.8,2027.22C10073.6,2030.55 10071.7,2035.26 10071.1,2041.34L10105.5,2041.34Z" style="fill-rule:nonzero;stroke:black;stroke-opacity:0.24;stroke-width:1px;stroke-linejoin:round;stroke-miterlimit:2;"/>
                    <path d="M10191.5,2091.87L10168.6,2091.87L10135.8,2009.19L10158,2009.19L10175.1,2056.07L10180.2,2071.2L10185.3,2056.72L10202.6,2009.19L10224,2009.19L10191.5,2091.87Z" style="fill-rule:nonzero;stroke:black;stroke-opacity:0.24;stroke-width:1px;stroke-linejoin:round;stroke-miterlimit:2;"/>
                    <path d="M10314.2,2038.25C10314.2,2047.9 10313.1,2056.23 10310.8,2063.23C10308.6,2070.23 10305.5,2075.98 10301.5,2080.48C10297.6,2084.98 10293,2088.32 10287.7,2090.49C10282.4,2092.66 10276.8,2093.75 10270.7,2093.75C10256.7,2093.75 10246.2,2089.09 10239.2,2079.79C10232.1,2070.49 10228.6,2056.96 10228.6,2039.22C10228.6,2029.56 10229.7,2021.24 10232,2014.24C10234.2,2007.24 10237.3,2001.49 10241.2,1996.99C10245.2,1992.48 10249.8,1989.14 10255.1,1986.98C10260.4,1984.81 10266,1983.72 10272,1983.72C10286,1983.72 10296.6,1988.36 10303.6,1997.64C10310.7,2006.91 10314.2,2020.45 10314.2,2038.25ZM10293,2039.22C10293,2026.63 10291.4,2017.25 10288,2011.06C10284.6,2004.88 10279.1,2001.79 10271.4,2001.79C10267.5,2001.79 10264.3,2002.59 10261.5,2004.19C10258.8,2005.79 10256.6,2008.13 10254.8,2011.23C10253.1,2014.32 10251.8,2018.13 10251,2022.66C10250.2,2027.19 10249.7,2032.39 10249.7,2038.25C10249.7,2050.83 10251.4,2060.22 10254.8,2066.4C10258.2,2072.59 10263.7,2075.68 10271.4,2075.68C10275.2,2075.68 10278.5,2074.88 10281.3,2073.28C10284,2071.68 10286.3,2069.33 10288,2066.24C10289.7,2063.15 10291,2059.34 10291.8,2054.81C10292.6,2050.28 10293,2045.08 10293,2039.22Z" style="fill-rule:nonzero;stroke:black;stroke-opacity:0.24;stroke-width:1px;stroke-linejoin:round;stroke-miterlimit:2;"/>
                    <path d="M10402.9,2049.07C10402.9,2056.66 10401.8,2063.23 10399.7,2068.76C10397.5,2074.3 10394.6,2078.89 10390.7,2082.56C10386.9,2086.22 10382.4,2088.93 10377.2,2090.69C10372,2092.46 10366.3,2093.34 10360.2,2093.34C10358.1,2093.34 10356.1,2093.2 10354,2092.93C10351.9,2092.66 10350.1,2092.31 10348.4,2091.87L10348.4,2124.18L10328.5,2124.18L10328.5,2009.19L10345.7,2009.19L10346.2,2021.4C10347.9,2019.28 10349.6,2017.36 10351.4,2015.62C10353.3,2013.88 10355.2,2012.41 10357.3,2011.19C10359.4,2009.97 10361.7,2009.03 10364.2,2008.38C10366.6,2007.73 10369.4,2007.4 10372.4,2007.4C10377.3,2007.4 10381.6,2008.38 10385.4,2010.33C10389.2,2012.29 10392.4,2015.07 10395,2018.67C10397.5,2022.28 10399.5,2026.65 10400.9,2031.78C10402.2,2036.9 10402.9,2042.67 10402.9,2049.07ZM10382.1,2049.88C10382.1,2045.33 10381.7,2041.45 10381.1,2038.25C10380.4,2035.04 10379.5,2032.41 10378.3,2030.35C10377.1,2028.29 10375.6,2026.78 10373.8,2025.83C10372.1,2024.88 10370,2024.41 10367.8,2024.41C10364.4,2024.41 10361.2,2025.77 10358.1,2028.48C10355,2031.19 10351.8,2034.88 10348.4,2039.55L10348.4,2075.68C10350,2076.28 10351.9,2076.76 10354.2,2077.14C10356.5,2077.52 10358.9,2077.71 10361.2,2077.71C10364.4,2077.71 10367.2,2077.06 10369.8,2075.76C10372.4,2074.46 10374.6,2072.61 10376.4,2070.23C10378.2,2067.84 10379.6,2064.92 10380.6,2061.48C10381.6,2058.03 10382.1,2054.17 10382.1,2049.88Z" style="fill-rule:nonzero;stroke:black;stroke-opacity:0.24;stroke-width:1px;stroke-linejoin:round;stroke-miterlimit:2;"/>
                    <path d="M10488.4,2067.54C10488.4,2072.26 10487.3,2076.29 10485.2,2079.63C10483.1,2082.96 10480.4,2085.68 10476.9,2087.76C10473.5,2089.85 10469.6,2091.37 10465.2,2092.32C10460.8,2093.27 10456.4,2093.75 10451.8,2093.75C10445.7,2093.75 10440.3,2093.46 10435.4,2092.89C10430.5,2092.32 10425.9,2091.49 10421.5,2090.41L10421.5,2072.51C10426.6,2074.62 10431.7,2076.16 10436.8,2077.1C10441.9,2078.05 10446.7,2078.53 10451.2,2078.53C10456.4,2078.53 10460.3,2077.7 10462.8,2076.05C10465.4,2074.39 10466.7,2072.24 10466.7,2069.58C10466.7,2068.33 10466.4,2067.19 10465.9,2066.16C10465.4,2065.13 10464.3,2064.14 10462.8,2063.19C10461.4,2062.24 10459.2,2061.26 10456.5,2060.26C10453.8,2059.26 10450.3,2058.13 10445.9,2056.88C10441.8,2055.74 10438.2,2054.45 10435.2,2053.01C10432.1,2051.58 10429.6,2049.88 10427.6,2047.93C10425.6,2045.98 10424.1,2043.71 10423,2041.13C10422,2038.56 10421.5,2035.53 10421.5,2032.06C10421.5,2028.7 10422.3,2025.52 10423.8,2022.54C10425.3,2019.56 10427.6,2016.94 10430.6,2014.68C10433.6,2012.43 10437.4,2010.66 10441.9,2009.36C10446.4,2008.05 10451.7,2007.4 10457.7,2007.4C10462.9,2007.4 10467.5,2007.67 10471.5,2008.22C10475.5,2008.76 10479.1,2009.36 10482.2,2010.01L10482.2,2026.2C10477.5,2024.68 10473,2023.61 10468.9,2022.99C10464.7,2022.36 10460.6,2022.05 10456.5,2022.05C10452.5,2022.05 10449.2,2022.78 10446.7,2024.25C10444.3,2025.71 10443,2027.75 10443,2030.35C10443,2031.6 10443.3,2032.71 10443.8,2033.69C10444.2,2034.66 10445.2,2035.61 10446.6,2036.54C10448.1,2037.46 10450.1,2038.42 10452.7,2039.42C10455.2,2040.43 10458.7,2041.53 10462.9,2042.72C10467.7,2044.08 10471.7,2045.53 10474.9,2047.08C10478.2,2048.62 10480.8,2050.37 10482.8,2052.32C10484.8,2054.28 10486.2,2056.5 10487.1,2059C10487.9,2061.49 10488.4,2064.34 10488.4,2067.54Z" style="fill-rule:nonzero;stroke:black;stroke-opacity:0.24;stroke-width:1px;stroke-linejoin:round;stroke-miterlimit:2;"/>
                </g>
            </g>
            <g transform="matrix(0.363834,-8.94182e-18,6.73237e-18,-0.556255,5575.46,3303.37)">
                <path d="M11312.1,2063.96C11316.6,2083.19 11339.8,2101.22 11370.9,2093.7C11373,2093.18 11375.2,2092.38 11377.3,2091.35L11386,2117.51L11412.1,2128.39C11402.2,2135.1 11392.3,2139.83 11382.6,2142.17C11312.6,2159.1 11266.1,2107.88 11261.7,2063.73L11287.6,2052.41L11312.1,2063.96ZM11641.9,2063.18C11636,2103.65 11598.8,2152.65 11537.4,2144.11C11525.2,2142.41 11511.8,2135.95 11497.9,2126.31L11523.4,2113.44L11529.8,2088.39C11534.8,2091.68 11539.6,2094.07 11544.3,2094.72C11568.9,2098.15 11585.1,2081.5 11590.7,2064.83L11618.9,2052.41L11641.9,2063.18ZM11412.5,1979.63C11414,1980.72 11415.5,1981.86 11417,1983.04C11428.9,1992.3 11441.2,2004.01 11453.6,2016.53C11465.4,2004.24 11477.5,1992.81 11489.7,1983.48L11499.4,2011.32L11522.4,2020.53C11519.1,2022.91 11515.9,2025.55 11512.6,2028.35C11504.4,2035.4 11496.3,2043.58 11488.3,2052.17C11497.7,2061.74 11507.1,2070.75 11516.2,2078.24L11509.9,2102.62L11483.9,2115.76C11474.5,2108.18 11465.1,2099.45 11455.6,2090.03L11454.8,2089.18C11445.2,2099.55 11435.8,2109.25 11426.4,2117.33L11398.7,2105.76L11390.8,2082.18C11393.4,2080.08 11395.9,2077.79 11398.5,2075.39C11405.6,2068.82 11412.8,2061.31 11420,2053.4C11410.7,2043.98 11401.5,2035.03 11392.5,2027.38C11389.4,2024.74 11386.3,2022.24 11383.4,2019.97L11405,2009.08L11412.5,1979.63ZM11503.1,1974.17C11513.4,1967.78 11523.7,1963.17 11534.1,1961.07C11609.9,1945.66 11639.5,2008.31 11642.4,2046.08L11619.1,2035.14L11592.4,2046.89C11590,2029.41 11576.9,2003.26 11544,2009.93C11542.8,2010.17 11541.6,2010.48 11540.4,2010.85L11511.9,1999.39L11503.1,1974.17ZM11262,2046.43C11267.6,1998.4 11309.9,1945.77 11374.1,1960.48C11382,1962.27 11390.2,1965.7 11398.6,1970.53L11391.5,1998.26L11367.4,2010.43C11365.9,2009.87 11364.5,2009.42 11363,2009.09C11334.8,2002.62 11316.9,2025.06 11312.4,2046.72L11287.9,2035.14L11262,2046.43Z" style="fill:white;"/>
            </g>
        </g>
    </g>
</svg>
