<?xml version="1.0" encoding="UTF-8" standalone="no"?>
<!DOCTYPE svg PUBLIC "-//W3C//DTD SVG 1.1//EN" "http://www.w3.org/Graphics/SVG/1.1/DTD/svg11.dtd">
<svg width="100%" height="100%" viewBox="0 0 893 809" version="1.1" xmlns="http://www.w3.org/2000/svg" xmlns:xlink="http://www.w3.org/1999/xlink" xml:space="preserve" xmlns:serif="http://www.serif.com/" style="fill-rule:evenodd;clip-rule:evenodd;stroke-linejoin:round;stroke-miterlimit:2;">
    <g transform="matrix(1,0,0,1,-4571.16,-17945.4)">
        <path d="M5463.74,18722.3L4571.16,18722.3L4571.16,18753.8L5463.74,18753.8L5463.74,18722.3ZM4698.37,17945.4L4698.37,18435.5L4571.16,18712.2L5463.74,18710.4L5343.69,18435.5L5343.69,17945.4L4698.37,17945.4ZM4909.55,18593.5L4880.69,18672.6L5147.83,18673.1L5118.42,18593.7L4909.55,18593.5ZM4714.76,18460.1L4669.65,18572.5L5365.26,18572.5L5321.6,18462.2L4714.76,18460.1ZM5234.1,18475.2L5259.77,18561.5L5344.06,18561.5L5313.42,18475.9L5234.1,18475.2ZM4724.18,18472.7L4692.21,18557.9L5242.61,18561.5L5218.95,18475.2L4724.18,18472.7ZM4737.97,17993.8L4736.88,18394.5L5307.3,18395.8L5306.37,17994.5L4737.97,17993.8ZM5132.84,18290.6L5030.45,18269.5L5030.45,18187.7L5132.84,18187.7L5132.84,18290.6ZM5011.6,18187.7L5011.6,18265.6L4909.21,18244.5L4909.21,18187.7L5011.6,18187.7ZM5030.45,18168.9L5030.45,18103.6L5132.84,18090.3L5132.84,18168.9L5030.45,18168.9ZM5011.6,18168.9L4909.21,18168.9L4909.21,18119.4L5011.6,18106.1L5011.6,18168.9Z"/>
    </g>
</svg>
