<?xml version="1.0" encoding="UTF-8" standalone="no"?>
<!DOCTYPE svg PUBLIC "-//W3C//DTD SVG 1.1//EN" "http://www.w3.org/Graphics/SVG/1.1/DTD/svg11.dtd">
<svg width="100%" height="100%" viewBox="0 0 900 900" version="1.1" xmlns="http://www.w3.org/2000/svg" xmlns:xlink="http://www.w3.org/1999/xlink" xml:space="preserve" xmlns:serif="http://www.serif.com/" style="fill-rule:evenodd;clip-rule:evenodd;stroke-linejoin:round;stroke-miterlimit:2;">
    <g transform="matrix(1,0,0,1,-8420,-11191)">
        <path d="M8994.72,11801.7C8946.04,11797.5 8907.85,11759.4 8907.85,11713C8907.85,11663.8 8950.71,11623.9 9003.5,11623.9C9056.29,11623.9 9099.15,11663.8 9099.15,11713C9099.15,11722.6 9097.53,11731.8 9094.53,11740.4L9272.59,11943.3L9147.33,11929.1L9118.67,12060.4L8994.72,11801.7ZM9197.83,11800L9149.81,11745.3L9149.81,11300.7L9149.81,11300.7C9149.81,11300.7 8520.51,11300.7 8520.51,11300.7C8520.51,11418.4 8520.51,11719.9 8520.51,11837.6L8969.41,11837.6L8992.42,11885.6L8472.49,11885.6L8472.49,11252.7L9197.83,11252.7L9197.83,11800ZM8919.67,11777.9L8589.85,11779.5C8589.85,11779.5 8591.82,11370.8 8591.82,11370.8C8591.82,11370.8 9079.52,11368.5 9079.52,11368.5C9079.52,11368.5 9079.52,11639.9 9079.52,11639.9C9090.18,11647 9097.48,11657.2 9102.36,11669.6L9100.92,11347L8570.52,11349.5L8568.34,11801L8943.94,11798.9C8935.83,11793.6 8924.12,11787 8919.67,11777.9Z"/>
    </g>
</svg>
