<?xml version="1.0" encoding="UTF-8" standalone="no"?>
<!DOCTYPE svg PUBLIC "-//W3C//DTD SVG 1.1//EN" "http://www.w3.org/Graphics/SVG/1.1/DTD/svg11.dtd">
<svg width="1em" height="1em" viewBox="0 0 900 900" version="1.1" xmlns="http://www.w3.org/2000/svg" xmlns:xlink="http://www.w3.org/1999/xlink" xml:space="preserve" xmlns:serif="http://www.serif.com/" style="fill-rule:evenodd;clip-rule:evenodd;stroke-linejoin:round;stroke-miterlimit:2;">
    <g transform="matrix(1,0,0,1,-5365,-1492)">
        
        <g transform="matrix(3.91056,0,0,3.91056,3956.75,-9562.61)">
            <path d="M530.568,2955.92L530.568,3054.94L395.804,3054.94L395.804,2990.77L412.833,3002.85L412.833,3037.91C412.833,3037.91 513.54,3037.91 513.54,3037.91L513.54,2978.05L530.568,2955.92ZM360.537,2951.17L392.486,2910.35L459.503,2978.68L540.986,2828.7L590.684,2858.29L463.186,3023.95L360.537,2951.17ZM467.518,2938.98L437.248,2938.98L420.546,2921.95L476.77,2921.95L467.518,2938.98Z"/>
        </g>
    </g>
</svg>
