<?xml version="1.0" encoding="UTF-8" standalone="no"?>
<!DOCTYPE svg PUBLIC "-//W3C//DTD SVG 1.1//EN" "http://www.w3.org/Graphics/SVG/1.1/DTD/svg11.dtd">
<svg width="100%" height="100%" viewBox="0 0 1428 378" version="1.1" xmlns="http://www.w3.org/2000/svg" xmlns:xlink="http://www.w3.org/1999/xlink" xml:space="preserve" xmlns:serif="http://www.serif.com/" style="fill-rule:evenodd;clip-rule:evenodd;stroke-miterlimit:1.5;">
    <g transform="matrix(1,0,0,1,-8858,-1016)">
        <g transform="matrix(1.51547,0,0,2.12668,-5844.3,-1990.38)">
            <g transform="matrix(1,0,0,0.536521,53.5903,523.629)">
                <g transform="matrix(0.659861,0,0,0.876416,3252.99,-15.1232)">
                    <g transform="matrix(1,0,0,1,21.2497,-26.728)">
                        <path d="M11066.4,2045.02C11066.4,2024.65 11058.3,2005.11 11043.9,1990.71C11029.4,1976.3 11009.9,1968.21 10989.5,1968.21L9701.68,1968.21L9701.68,2283L11066.4,2283C11066.4,2283 11066.4,2138.2 11066.4,2045.02Z" style="fill:white;stroke:black;stroke-width:34.71px;"/>
                    </g>
                    <g transform="matrix(1,0,0,1,17.9569,0.812521)">
                        <rect x="9722.3" y="1940.67" width="225.413" height="314.786"/>
                    </g>
                    <g transform="matrix(1.44887,0,0,1.44887,-4435.33,-854.142)">
                        <path d="M9986,2002.44L9986,2031.9L10026.2,2031.9L10026.2,2048.34L9986,2048.34L9986,2091.87L9965.65,2091.87L9965.65,1985.51L10028.5,1985.51L10028.5,2002.44L9986,2002.44Z" style="fill-rule:nonzero;stroke:black;stroke-opacity:0.24;stroke-width:1px;stroke-linejoin:round;stroke-miterlimit:2;"/>
                        <path d="M10106.8,2041.34C10107,2038.25 10106.8,2035.61 10106.4,2033.44C10106,2031.27 10105.3,2029.48 10104.4,2028.07C10103.5,2026.66 10102.5,2025.63 10101.1,2024.98C10099.8,2024.33 10098.4,2024 10096.7,2024C10093.7,2024 10090.7,2025.21 10087.6,2027.62C10084.5,2030.04 10081,2034.01 10077.3,2039.55L10077.3,2091.87L10057,2091.87L10057,2009.19L10074.9,2009.19L10075.7,2021.24C10077,2019.12 10078.6,2017.22 10080.3,2015.54C10082,2013.86 10083.9,2012.41 10086,2011.19C10088.1,2009.97 10090.4,2009.03 10092.9,2008.38C10095.5,2007.73 10098.3,2007.4 10101.3,2007.4C10105.5,2007.4 10109.2,2008.12 10112.4,2009.56C10115.6,2011 10118.4,2013.13 10120.6,2015.95C10122.8,2018.77 10124.4,2022.31 10125.4,2026.57C10126.5,2030.83 10126.9,2035.75 10126.8,2041.34L10106.8,2041.34Z" style="fill-rule:nonzero;stroke:black;stroke-opacity:0.24;stroke-width:1px;stroke-linejoin:round;stroke-miterlimit:2;"/>
                        <path d="M10219.7,2049.88C10219.7,2056.39 10218.8,2062.35 10217,2067.74C10215.1,2073.14 10212.4,2077.77 10209,2081.62C10205.5,2085.47 10201.2,2088.46 10196.2,2090.57C10191.2,2092.69 10185.4,2093.75 10178.9,2093.75C10172.8,2093.75 10167.3,2092.85 10162.5,2091.06C10157.7,2089.27 10153.6,2086.6 10150.2,2083.05C10146.9,2079.49 10144.3,2075.04 10142.5,2069.7C10140.7,2064.35 10139.8,2058.13 10139.8,2051.02C10139.8,2044.46 10140.7,2038.49 10142.6,2033.12C10144.5,2027.75 10147.2,2023.16 10150.7,2019.37C10154.2,2015.57 10158.4,2012.62 10163.5,2010.54C10168.5,2008.45 10174.2,2007.4 10180.6,2007.4C10186.8,2007.4 10192.3,2008.31 10197.1,2010.13C10201.9,2011.95 10206,2014.64 10209.4,2018.23C10212.7,2021.81 10215.3,2026.24 10217.1,2031.53C10218.8,2036.82 10219.7,2042.94 10219.7,2049.88ZM10199,2050.37C10199,2041.8 10197.4,2035.36 10194.2,2031.04C10191,2026.73 10186.2,2024.57 10179.9,2024.57C10176.5,2024.57 10173.5,2025.25 10171.1,2026.61C10168.6,2027.96 10166.6,2029.82 10165,2032.18C10163.5,2034.54 10162.3,2037.3 10161.6,2040.44C10160.8,2043.59 10160.5,2046.95 10160.5,2050.53C10160.5,2059.16 10162.2,2065.66 10165.7,2070.02C10169.2,2074.39 10173.9,2076.57 10179.9,2076.57C10183.2,2076.57 10186.1,2075.91 10188.6,2074.58C10191,2073.25 10193,2071.41 10194.5,2069.05C10196,2066.69 10197.1,2063.91 10197.9,2060.71C10198.7,2057.51 10199,2054.06 10199,2050.37Z" style="fill-rule:nonzero;stroke:black;stroke-opacity:0.24;stroke-width:1px;stroke-linejoin:round;stroke-miterlimit:2;"/>
                        <path d="M10286.2,2091.87L10286.2,2038C10286.2,2028.94 10282.8,2024.41 10276.1,2024.41C10272.8,2024.41 10269.5,2025.77 10266.5,2028.48C10263.4,2031.19 10260.2,2034.88 10256.7,2039.55L10256.7,2091.87L10236.9,2091.87L10236.9,2009.19L10254.1,2009.19L10254.6,2021.4C10256.2,2019.28 10258,2017.36 10259.8,2015.62C10261.6,2013.88 10263.6,2012.41 10265.7,2011.19C10267.8,2009.97 10270.1,2009.03 10272.5,2008.38C10275,2007.73 10277.7,2007.4 10280.8,2007.4C10285,2007.4 10288.7,2008.09 10291.8,2009.48C10295,2010.86 10297.6,2012.81 10299.7,2015.34C10301.8,2017.86 10303.4,2020.9 10304.5,2024.45C10305.5,2028.01 10306.1,2031.98 10306.1,2036.37L10306.1,2091.87L10286.2,2091.87Z" style="fill-rule:nonzero;stroke:black;stroke-opacity:0.24;stroke-width:1px;stroke-linejoin:round;stroke-miterlimit:2;"/>
                        <path d="M10396.7,2091.06C10393.1,2091.87 10389.5,2092.53 10385.9,2093.01C10382.3,2093.5 10378.8,2093.75 10375.6,2093.75C10370.1,2093.75 10365.5,2093.18 10361.5,2092.04C10357.6,2090.9 10354.3,2089.16 10351.8,2086.83C10349.2,2084.5 10347.3,2081.53 10346.1,2077.92C10344.8,2074.31 10344.2,2070.01 10344.2,2065.02L10344.2,2024.65L10322,2024.65L10322,2009.19L10344.2,2009.19L10344.2,1988.03L10364.6,1982.74L10364.6,2009.19L10396.7,2009.19L10396.7,2024.65L10364.6,2024.65L10364.6,2063.55C10364.6,2068.27 10365.7,2071.84 10367.8,2074.26C10370,2076.67 10373.6,2077.88 10378.7,2077.88C10382,2077.88 10385.2,2077.61 10388.3,2077.06C10391.4,2076.52 10394.2,2075.9 10396.7,2075.19L10396.7,2091.06Z" style="fill-rule:nonzero;stroke:black;stroke-opacity:0.24;stroke-width:1px;stroke-linejoin:round;stroke-miterlimit:2;"/>
                        <path d="M10492.2,2044.19C10492.2,2045.54 10492.1,2047.31 10492.1,2049.47C10492,2051.64 10491.9,2053.68 10491.7,2055.58L10437.3,2055.58C10437.3,2059.21 10437.9,2062.41 10439,2065.18C10440.1,2067.95 10441.7,2070.27 10443.7,2072.14C10445.8,2074.01 10448.2,2075.44 10451,2076.41C10453.9,2077.39 10457.1,2077.88 10460.5,2077.88C10464.5,2077.88 10468.8,2077.57 10473.4,2076.94C10478,2076.32 10482.8,2075.3 10487.7,2073.89L10487.7,2089.68C10485.6,2090.27 10483.3,2090.82 10480.8,2091.3C10478.3,2091.79 10475.7,2092.23 10473.1,2092.61C10470.5,2092.99 10467.9,2093.27 10465.2,2093.46C10462.6,2093.65 10460,2093.75 10457.5,2093.75C10451.2,2093.75 10445.6,2092.85 10440.6,2091.06C10435.6,2089.27 10431.4,2086.62 10427.9,2083.13C10424.4,2079.63 10421.8,2075.3 10419.9,2070.15C10418.1,2064.99 10417.1,2059.02 10417.1,2052.24C10417.1,2045.52 10418.1,2039.4 10419.9,2033.89C10421.8,2028.38 10424.4,2023.66 10427.7,2019.73C10431.1,2015.8 10435.2,2012.76 10440,2010.62C10444.8,2008.47 10450.1,2007.4 10456,2007.4C10461.9,2007.4 10467.1,2008.31 10471.6,2010.13C10476.1,2011.95 10479.9,2014.48 10482.9,2017.74C10485.9,2020.99 10488.2,2024.87 10489.8,2029.37C10491.4,2033.88 10492.2,2038.82 10492.2,2044.19ZM10472,2041.34C10472.1,2038.08 10471.6,2035.25 10470.8,2032.83C10469.9,2030.42 10468.7,2028.42 10467.2,2026.85C10465.7,2025.28 10464,2024.11 10462,2023.35C10460,2022.59 10457.9,2022.21 10455.6,2022.21C10450.6,2022.21 10446.6,2023.88 10443.4,2027.22C10440.2,2030.55 10438.3,2035.26 10437.7,2041.34L10472,2041.34Z" style="fill-rule:nonzero;stroke:black;stroke-opacity:0.24;stroke-width:1px;stroke-linejoin:round;stroke-miterlimit:2;"/>
                        <path d="M10561.1,2091.87L10561.1,2038C10561.1,2028.94 10557.7,2024.41 10551,2024.41C10547.7,2024.41 10544.4,2025.77 10541.4,2028.48C10538.3,2031.19 10535.1,2034.88 10531.6,2039.55L10531.6,2091.87L10511.8,2091.87L10511.8,2009.19L10529,2009.19L10529.5,2021.4C10531.1,2019.28 10532.9,2017.36 10534.7,2015.62C10536.5,2013.88 10538.5,2012.41 10540.6,2011.19C10542.7,2009.97 10545,2009.03 10547.4,2008.38C10549.9,2007.73 10552.6,2007.4 10555.7,2007.4C10559.9,2007.4 10563.6,2008.09 10566.7,2009.48C10569.9,2010.86 10572.5,2012.81 10574.6,2015.34C10576.7,2017.86 10578.3,2020.9 10579.4,2024.45C10580.4,2028.01 10581,2031.98 10581,2036.37L10581,2091.87L10561.1,2091.87Z" style="fill-rule:nonzero;stroke:black;stroke-opacity:0.24;stroke-width:1px;stroke-linejoin:round;stroke-miterlimit:2;"/>
                        <path d="M10655.4,2091.87L10654.9,2079.67C10653.2,2081.78 10651.4,2083.71 10649.6,2085.45C10647.7,2087.18 10645.7,2088.66 10643.6,2089.88C10641.5,2091.1 10639.2,2092.05 10636.8,2092.73C10634.4,2093.41 10631.7,2093.75 10628.8,2093.75C10623.9,2093.75 10619.6,2092.77 10615.8,2090.82C10612,2088.86 10608.8,2086.08 10606.2,2082.47C10603.7,2078.87 10601.7,2074.49 10600.3,2069.33C10599,2064.18 10598.3,2058.43 10598.3,2052.08C10598.3,2044.48 10599.4,2037.91 10601.5,2032.35C10603.7,2026.78 10606.6,2022.17 10610.4,2018.51C10614.2,2014.85 10618.7,2012.13 10623.9,2010.37C10629.1,2008.61 10634.8,2007.73 10640.9,2007.73C10643,2007.73 10645.1,2007.86 10647.2,2008.13C10649.3,2008.4 10651.1,2008.76 10652.7,2009.19L10652.7,1976.88L10672.6,1976.88L10672.6,2091.87L10655.4,2091.87ZM10619.1,2051.18C10619.1,2055.74 10619.4,2059.63 10620.1,2062.86C10620.7,2066.09 10621.6,2068.74 10622.8,2070.8C10624.1,2072.86 10625.6,2074.36 10627.4,2075.31C10629.1,2076.26 10631.2,2076.74 10633.5,2076.74C10636.8,2076.74 10640,2075.38 10643.1,2072.67C10646.1,2069.96 10649.3,2066.24 10652.7,2061.52L10652.7,2025.39C10651.2,2024.79 10649.2,2024.3 10646.9,2023.92C10644.6,2023.54 10642.3,2023.35 10640,2023.35C10636.8,2023.35 10633.9,2024 10631.3,2025.31C10628.8,2026.61 10626.6,2028.45 10624.8,2030.84C10623,2033.23 10621.6,2036.14 10620.6,2039.59C10619.6,2043.03 10619.1,2046.9 10619.1,2051.18Z" style="fill-rule:nonzero;stroke:black;stroke-opacity:0.24;stroke-width:1px;stroke-linejoin:round;stroke-miterlimit:2;"/>
                    </g>
                </g>
                <g transform="matrix(0.373117,0,0,0.529294,6906.87,317.018)">
                    <path d="M9833.21,2873.39L9835.38,2879.64L9842.4,2879.64L9836.72,2883.5L9838.89,2889.74L9833.21,2885.88L9827.54,2889.74L9829.7,2883.5L9824.03,2879.64L9831.04,2879.64L9833.21,2873.39Z" style="stroke:black;stroke-width:2.9px;stroke-linejoin:round;"/>
                </g>
            </g>
            <g transform="matrix(0.659861,0,0,0.470216,2002.91,456.324)">
                <path d="M11784.3,2289.25L11719.2,2289.25L11719.2,2142.96L11910.1,2142.96L11910.1,2289.25L11864,2289.25L11864,2337C11864,2344.04 11858.3,2349.76 11851.2,2349.76L11797,2349.76C11790,2349.76 11784.3,2344.04 11784.3,2337L11784.3,2289.25ZM11843,2191.07L11843,2193.03C11842.9,2195.4 11841,2197.31 11838.6,2197.31L11809.1,2197.31C11806.7,2197.31 11804.8,2195.4 11804.8,2193.03L11804.8,2191.07L11798,2191.07C11792.4,2191.07 11787.9,2195.61 11787.9,2201.21L11787.9,2336.18C11787.9,2341.78 11792.4,2346.32 11798,2346.32L11850.2,2346.32C11855.8,2346.32 11860.3,2341.78 11860.3,2336.18L11860.3,2201.21C11860.3,2195.61 11855.8,2191.07 11850.2,2191.07L11843,2191.07ZM11790.8,2335.51L11790.8,2303.01C11797,2297.63 11807.6,2290.78 11824.1,2310.74C11838.5,2328.1 11857.2,2302.82 11857.2,2302.82L11857.2,2337.15C11856.8,2341.82 11853.5,2343.33 11849.5,2343.69L11797.8,2343.69C11794.1,2343.62 11790.8,2339.57 11790.8,2335.51ZM11864,2279.31L11900.9,2279.31L11900.9,2177.99L11728.9,2177.99L11728.9,2279.31L11784.3,2279.31L11784.3,2273.2L11735.3,2273.13L11735.3,2220.71C11748.9,2202.58 11767,2204.38 11784.3,2212.59L11784.3,2200.38C11784.3,2193.34 11790,2187.63 11797,2187.63L11851.2,2187.63C11858.3,2187.63 11864,2193.34 11864,2200.38L11864,2237.07C11875.2,2233.82 11883.1,2227.11 11893.4,2216.1L11893.2,2273.34L11864,2273.3L11864,2279.31ZM11900.2,2149.48L11786.3,2149.48L11786.3,2163.88L11900.2,2163.88L11900.2,2149.48ZM11737.3,2149.48C11741.3,2149.48 11744.5,2152.71 11744.5,2156.68C11744.5,2160.66 11741.3,2163.88 11737.3,2163.88C11733.4,2163.88 11730.2,2160.66 11730.2,2156.68C11730.2,2152.71 11733.4,2149.48 11737.3,2149.48ZM11754.7,2149.48C11758.7,2149.48 11761.9,2152.71 11761.9,2156.68C11761.9,2160.66 11758.7,2163.88 11754.7,2163.88C11750.7,2163.88 11747.5,2160.66 11747.5,2156.68C11747.5,2152.71 11750.7,2149.48 11754.7,2149.48ZM11772.4,2149.48C11776.4,2149.48 11779.6,2152.71 11779.6,2156.68C11779.6,2160.66 11776.4,2163.88 11772.4,2163.88C11768.4,2163.88 11765.2,2160.66 11765.2,2156.68C11765.2,2152.71 11768.4,2149.48 11772.4,2149.48ZM11910.1,2128.61L11719.2,2128.61L11719.2,2138.72L11910.1,2138.72L11910.1,2128.61Z" style="fill:white;"/>
            </g>
        </g>
    </g>
</svg>
