<?xml version="1.0" encoding="UTF-8" standalone="no"?>
<!DOCTYPE svg PUBLIC "-//W3C//DTD SVG 1.1//EN" "http://www.w3.org/Graphics/SVG/1.1/DTD/svg11.dtd">
<svg width="100%" height="100%" viewBox="0 0 900 900" version="1.1" xmlns="http://www.w3.org/2000/svg" xmlns:xlink="http://www.w3.org/1999/xlink" xml:space="preserve" xmlns:serif="http://www.serif.com/" style="fill-rule:evenodd;clip-rule:evenodd;stroke-linejoin:round;stroke-miterlimit:2;">
    <g transform="matrix(1,0,0,1,-8271,-2102)">
        <g id="Calque1">
        </g>
        <g transform="matrix(3.69928,0,0,3.69928,-34985.1,-5710.37)">
            <path d="M11784.3,2289.25L11719.2,2289.25L11719.2,2142.96L11910.1,2142.96L11910.1,2289.25L11864,2289.25L11864,2337C11864,2344.04 11858.3,2349.76 11851.2,2349.76L11797,2349.76C11790,2349.76 11784.3,2344.04 11784.3,2337L11784.3,2289.25ZM11843,2191.07L11843,2193.03C11842.9,2195.4 11841,2197.31 11838.6,2197.31L11809.1,2197.31C11806.7,2197.31 11804.8,2195.4 11804.8,2193.03L11804.8,2191.07L11798,2191.07C11792.4,2191.07 11787.9,2195.61 11787.9,2201.21L11787.9,2336.18C11787.9,2341.78 11792.4,2346.32 11798,2346.32L11850.2,2346.32C11855.8,2346.32 11860.3,2341.78 11860.3,2336.18L11860.3,2201.21C11860.3,2195.61 11855.8,2191.07 11850.2,2191.07L11843,2191.07ZM11790.8,2335.51L11790.8,2299.01C11797,2293.63 11807.6,2286.78 11824.1,2306.74C11838.5,2324.1 11857.2,2298.82 11857.2,2298.82L11857.2,2337.15C11856.8,2341.82 11853.5,2343.33 11849.5,2343.69L11797.8,2343.69C11794.1,2343.62 11790.8,2339.57 11790.8,2335.51ZM11864,2279.31L11900.9,2279.31L11900.9,2177.99L11728.9,2177.99L11728.9,2279.31L11784.3,2279.31L11784.3,2273.2L11735.3,2273.13L11735.3,2220.71C11748.9,2202.58 11767,2204.38 11784.3,2212.59L11784.3,2200.38C11784.3,2193.34 11790,2187.63 11797,2187.63L11851.2,2187.63C11858.3,2187.63 11864,2193.34 11864,2200.38L11864,2237.07C11875.2,2233.82 11883.1,2227.11 11893.4,2216.1L11893.2,2273.34L11864,2273.3L11864,2279.31ZM11900.2,2149.48L11786.3,2149.48L11786.3,2163.88L11900.2,2163.88L11900.2,2149.48ZM11737.3,2149.48C11741.3,2149.48 11744.5,2152.71 11744.5,2156.68C11744.5,2160.66 11741.3,2163.88 11737.3,2163.88C11733.4,2163.88 11730.2,2160.66 11730.2,2156.68C11730.2,2152.71 11733.4,2149.48 11737.3,2149.48ZM11754.7,2149.48C11758.7,2149.48 11761.9,2152.71 11761.9,2156.68C11761.9,2160.66 11758.7,2163.88 11754.7,2163.88C11750.7,2163.88 11747.5,2160.66 11747.5,2156.68C11747.5,2152.71 11750.7,2149.48 11754.7,2149.48ZM11772.4,2149.48C11776.4,2149.48 11779.6,2152.71 11779.6,2156.68C11779.6,2160.66 11776.4,2163.88 11772.4,2163.88C11768.4,2163.88 11765.2,2160.66 11765.2,2156.68C11765.2,2152.71 11768.4,2149.48 11772.4,2149.48ZM11910.1,2128.61L11719.2,2128.61L11719.2,2138.72L11910.1,2138.72L11910.1,2128.61Z"/>
        </g>
    </g>
</svg>
