<?xml version="1.0" encoding="UTF-8" standalone="no"?>
<!DOCTYPE svg PUBLIC "-//W3C//DTD SVG 1.1//EN" "http://www.w3.org/Graphics/SVG/1.1/DTD/svg11.dtd">
<svg width="100%" height="100%" viewBox="0 0 902 897" version="1.1" xmlns="http://www.w3.org/2000/svg" xmlns:xlink="http://www.w3.org/1999/xlink" xml:space="preserve" xmlns:serif="http://www.serif.com/" style="fill-rule:evenodd;clip-rule:evenodd;stroke-miterlimit:1.5;">
    <g transform="matrix(1,0,0,1,-5365,-297)">
        <g>
            <g transform="matrix(1.69946,0,0,1.69946,-2249.1,1289.9)">
                <g transform="matrix(0.520827,0,0,0.520827,1893.87,-699.042)">
                    <path d="M5298.03,774.385C5343.91,818.606 5406.29,845.814 5474.98,845.814C5542.45,845.814 5603.83,819.567 5649.48,776.73C5684.96,794.415 5720.97,817.369 5757.54,845.814C5803.36,942.762 5808.93,1046.9 5757.54,1161.21L5192.43,1161.21C5147.19,1040.41 5147.4,935.356 5192.43,845.814C5227.08,816.569 5262.27,792.655 5298.03,774.385ZM5474.98,390.727C5585.37,390.727 5674.98,480.344 5674.98,590.727C5674.98,701.11 5585.37,790.727 5474.98,790.727C5364.6,790.727 5274.98,701.11 5274.98,590.727C5274.98,480.344 5364.6,390.727 5474.98,390.727Z"/>
                </g>
                <g transform="matrix(-1.22577,0,0,1.2121,7934.51,-1068.7)">
                    <g transform="matrix(0.429463,0.00426609,-0.00426609,0.429463,1744.21,332.053)">
                        <path d="M1844.59,321.601C1907.9,338.199 2136.57,411.485 2199.92,476.236C2220.84,347.789 2176.23,260.253 2060.96,208.512C1958.45,188.543 1889.26,232.783 1844.59,321.601Z"/>
                        <path d="M1802.77,316.406C1974.6,342.875 2119.22,531.044 2161.5,441.622C2070.87,365.258 1952.63,323.958 1802.77,316.406Z" style="fill:white;"/>
                        <path d="M1816.69,448.543C1825.77,428.987 1860.11,358.623 1883.72,351.006C1640.84,244.191 1677.68,484.482 1816.69,448.543Z" style="fill:rgb(122,122,122);"/>
                    </g>
                    <path d="M2673.27,530.647C2659.07,560.706 2608.04,514.71 2551.7,488.489C2455.37,443.651 2444.76,544.653 2525.25,533.908" style="fill:none;stroke:black;stroke-width:9.93px;"/>
                </g>
            </g>
            <g transform="matrix(0.642532,0,0,0.920105,2755.59,1019.39)">
                <path d="M4684.87,-153.682L4729.15,-73.139L4694.25,98.053L4836.54,98.053L4796.63,-73.139L4831.58,-151.214C4782.01,-132.159 4733.12,-133.252 4684.87,-153.682Z" style="fill:white;"/>
            </g>
        </g>
    </g>
</svg>
