<?xml version="1.0" encoding="UTF-8" standalone="no"?>
<!DOCTYPE svg PUBLIC "-//W3C//DTD SVG 1.1//EN" "http://www.w3.org/Graphics/SVG/1.1/DTD/svg11.dtd">
<svg width="100%" height="100%" viewBox="0 0 900 900" version="1.1" xmlns="http://www.w3.org/2000/svg" xmlns:xlink="http://www.w3.org/1999/xlink" xml:space="preserve" xmlns:serif="http://www.serif.com/" style="fill-rule:evenodd;clip-rule:evenodd;stroke-linecap:round;stroke-linejoin:round;stroke-miterlimit:1.5;">
    <g transform="matrix(1,0,0,1,-2232,-297)">
        <g id="colored">
        </g>
        <g transform="matrix(2.44633,0,0,2.35353,-3643.7,-669.317)">
            <g>
                <g transform="matrix(0.451202,0,0,0.45238,1705.15,251.101)">
                    <g transform="matrix(1.04781,0,0,1,554.307,-616.41)">
                        <path d="M1162.71,1390.02C1153.43,1374.94 1140.52,1384.44 1142.52,1391.79C1148.37,1400.22 1143.88,1431.21 1144.37,1439.93C1147.64,1458.62 1149.3,1475.91 1150.25,1492.28C1157.85,1510.86 1164.48,1520.94 1170.62,1526.73L1162.71,1390.02Z" style="stroke:black;stroke-width:1.65px;"/>
                    </g>
                    <g transform="matrix(1.04781,0,0,1,554.307,-616.41)">
                        <g>
                            <path d="M1167.02,1469.74C1165.54,1416.69 1165.34,1350.3 1175.11,1315.13C1178.43,1242.61 1213.48,1182.91 1240.8,1180.69C1279.87,1194.35 1315.39,1206.12 1348.56,1202.99L1348.56,1111.47C1193.79,1116.74 1129.56,1214.98 1167.02,1469.74Z" style="stroke:black;stroke-width:17.59px;"/>
                            <g transform="matrix(1,0,0,1,0,-1.10907)">
                                <path d="M1307.04,1384.78L1297.54,1362.02C1211.61,1354.79 1195.79,1370.52 1189.57,1394.43C1228.94,1376.74 1263.71,1374.12 1307.04,1384.78Z" style="stroke:black;stroke-width:17.59px;"/>
                            </g>
                            <path d="M1167.14,1473.57C1157.55,1583.72 1275.73,1768.63 1348.56,1770.64L1349.58,1674.14C1290.36,1678.86 1265.66,1651.75 1265.43,1594.3C1254.57,1648.42 1224.04,1646.5 1221.63,1603.88C1181.53,1591.07 1170.05,1507.25 1167.14,1473.57Z" style="stroke:black;stroke-width:17.59px;"/>
                        </g>
                        <path d="M1348.56,1638.46C1342.59,1648.19 1331.36,1648.94 1321.39,1649.24C1328.43,1655.48 1338.98,1661.47 1348.56,1658.63L1348.56,1638.46Z" style="stroke:black;stroke-width:17.59px;"/>
                    </g>
                    <g>
                        <g transform="matrix(1.04781,0,0,1,555.03,-616.173)">
                            <path d="M1160.4,1382.03L1161.37,1392.04C1167.87,1393.46 1178.74,1395.41 1182.92,1398.87C1179.99,1457.08 1199.9,1488.8 1252.57,1487.44C1288.83,1488.28 1318.32,1477.93 1331.12,1417.05C1333.44,1410.69 1338.74,1410.49 1347.87,1409.8L1347.87,1396.4C1337.5,1395.92 1327.27,1396.27 1318.71,1393.04C1284.07,1379.93 1251.99,1376.56 1188.83,1382.21C1184.39,1382.61 1178.61,1381.86 1173.86,1382.36L1160.4,1382.03ZM1189.63,1424.7C1183.81,1386.92 1212.19,1382.77 1255.35,1385.05C1295.56,1388.02 1321.93,1397.35 1322.2,1414.83C1319.03,1460.51 1296.19,1482.61 1255.35,1482.91C1214.31,1482.21 1190.74,1464.43 1189.63,1424.7Z" style="stroke:black;stroke-width:11.16px;"/>
                        </g>
                        <g transform="matrix(-1.04781,0,0,1,3379.64,-616.171)">
                            <path d="M1160.4,1382.03L1161.37,1392.04C1167.87,1393.46 1178.74,1395.41 1182.92,1398.87C1179.99,1457.08 1199.9,1488.8 1252.57,1487.44C1288.83,1488.28 1318.32,1477.93 1331.12,1417.05C1333.44,1410.69 1338.74,1410.49 1347.87,1409.8L1347.87,1396.4C1337.5,1395.92 1327.27,1396.27 1318.71,1393.04C1284.07,1379.93 1251.99,1376.56 1188.83,1382.21C1184.39,1382.61 1178.61,1381.86 1173.86,1382.36L1160.4,1382.03ZM1189.63,1424.7C1183.81,1386.92 1212.19,1382.77 1255.35,1385.05C1295.56,1388.02 1321.93,1397.35 1322.2,1414.83C1319.03,1460.51 1296.19,1482.61 1255.35,1482.91C1214.31,1482.21 1190.74,1464.43 1189.63,1424.7Z" style="stroke:black;stroke-width:11.16px;"/>
                        </g>
                    </g>
                    <g>
                        <g transform="matrix(0.972402,0.372499,-0.390308,0.928033,1105.33,-1077.38)">
                            <ellipse cx="1486.84" cy="1559.6" rx="13.22" ry="3.442" style="stroke:black;stroke-width:5.56px;"/>
                        </g>
                        <g transform="matrix(-0.972402,0.372499,0.390308,0.928033,2829.34,-1077.38)">
                            <ellipse cx="1486.84" cy="1559.6" rx="13.22" ry="3.442" style="stroke:black;stroke-width:5.56px;"/>
                        </g>
                    </g>
                    <g transform="matrix(-1.04781,0,0,1,3380.37,-616.408)">
                        <path d="M1162.71,1390.02C1153.43,1374.94 1140.52,1384.44 1142.52,1391.79C1148.37,1400.22 1143.88,1431.21 1144.37,1439.93C1147.64,1458.62 1149.3,1475.91 1150.25,1492.28C1157.85,1510.86 1164.48,1520.94 1170.62,1526.73L1162.71,1390.02Z" style="stroke:black;stroke-width:1.65px;"/>
                    </g>
                    <g transform="matrix(-1.04781,0,0,1,3380.37,-616.408)">
                        <path d="M1167.02,1469.74C1165.54,1416.69 1165.34,1350.3 1175.11,1315.13C1178.43,1242.61 1213.48,1182.91 1240.8,1180.69C1311.86,1148.08 1312.33,1247.11 1293.95,1280.48C1285.55,1295.75 1332.76,1204.48 1348.56,1202.99L1348.56,1074.04C1348.56,1074.04 1334.1,1101.25 1330.52,1099.35C1322.9,1095.3 1308.02,1051.61 1308.02,1051.61C1308.02,1051.61 1295.08,1101.35 1289.16,1096.9C1264.81,1078.59 1242.82,1068.02 1243.93,1063.32C1254.27,1100.52 1244.11,1115.4 1233.95,1121.21C1233.95,1121.21 1204.8,1141.67 1183.76,1135.92C1187.58,1129.37 1201.33,1169.92 1190.01,1188.59C1184.55,1197.59 1184.72,1194.81 1178.03,1207.2C1174.84,1213.11 1168.62,1224.57 1165.48,1231.01C1164.8,1232.41 1159.7,1243.85 1159.7,1243.85C1159.7,1243.85 1152.47,1268.09 1150.1,1273.78C1145.74,1284.24 1149.73,1290.38 1146.67,1301.25C1143.16,1313.75 1120.34,1323.23 1120.34,1323.23C1120.34,1323.23 1146.04,1358.65 1152.62,1378.5C1160.2,1401.43 1162.11,1436.31 1167.02,1469.74Z" style="stroke:black;stroke-width:17.7px;"/>
                    </g>
                    <g transform="matrix(-1.04781,0,0,1,3380.37,-616.408)">
                        <path d="M1307.04,1384.78L1297.54,1362.02C1211.61,1354.79 1195.79,1370.52 1189.57,1394.43C1228.94,1376.74 1263.71,1374.12 1307.04,1384.78Z" style="stroke:black;stroke-width:22.73px;"/>
                    </g>
                    <g transform="matrix(-1.04781,0,0,1,3380.37,-616.408)">
                        <path d="M1167.14,1473.57C1155.35,1566.05 1194.56,1666.5 1252.41,1723.69C1256.56,1727.8 1260.24,1746.49 1260.24,1746.49C1260.24,1746.49 1274.55,1742.87 1279.39,1746.2C1301.22,1761.24 1325.76,1770.11 1349.58,1770.64L1348.56,1674.16C1289.33,1678.88 1265.66,1651.75 1265.43,1594.3C1252.49,1656.68 1222.05,1652.72 1221.63,1603.88C1181.53,1591.07 1170.05,1507.25 1167.14,1473.57Z" style="stroke:black;stroke-width:17.7px;"/>
                    </g>
                    <g transform="matrix(-1.04781,0,0,1,3380.37,-616.408)">
                        <path d="M1348.56,1638.46C1342.59,1648.19 1331.36,1648.94 1321.39,1649.24C1328.43,1655.48 1338.98,1661.47 1348.56,1658.63L1348.56,1638.46Z" style="stroke:black;stroke-width:17.7px;"/>
                    </g>
                    <g transform="matrix(1,0,0,1,-1120.91,-433.259)">
                        <path d="M3099.91,1278.5C3108.72,1325.48 3108.62,1337.23 3111.85,1339.98C3113.31,1342.44 3142.92,1349.63 3099.91,1278.5Z" style="stroke:black;stroke-width:2.64px;stroke-linecap:butt;"/>
                    </g>
                    <g transform="matrix(1.06978,0,0,1.10907,-918.724,-52.846)">
                        <g transform="matrix(1,0,0,0.813178,-1.13687e-13,144.324)">
                            <ellipse cx="2616.34" cy="761.405" rx="15.184" ry="11.117" style="stroke:black;stroke-width:14.14px;"/>
                        </g>
                        <g transform="matrix(1,0,0,0.813178,161.147,144.324)">
                            <ellipse cx="2616.34" cy="761.405" rx="15.184" ry="11.117" style="stroke:black;stroke-width:14.14px;"/>
                        </g>
                    </g>
                    <g transform="matrix(1.06978,0,0,1.10907,-918.724,-52.846)">
                        <path d="M2700.38,915.228L2700.38,915.249C2674.72,918.768 2644.17,921.551 2616.39,929.366C2634.16,907.856 2662.63,892.422 2699.09,894.781C2734.41,892.43 2762,907.862 2779.22,929.367C2753.47,919.619 2725.14,915.17 2700.38,915.228Z" style="stroke:black;stroke-width:12.93px;"/>
                    </g>
                    <g transform="matrix(1.06978,0,0,1.10907,-918.724,-52.846)">
                        <path d="M2632.55,937.704C2675.04,945.854 2718.44,945.682 2762.89,935.914C2719.44,939.648 2675.99,940.16 2632.55,937.704Z" style="stroke:black;stroke-width:16.67px;"/>
                    </g>
                </g>
                <g>
                    <g transform="matrix(0.429463,0.00426609,-0.00426609,0.429463,1744.21,332.053)">
                        <path d="M1844.59,321.601C1907.9,338.199 2136.57,411.485 2199.92,476.236C2220.84,347.789 2176.23,260.253 2060.96,208.512C1958.45,188.543 1889.26,232.783 1844.59,321.601Z"/>
                        <path d="M1802.77,316.406C1974.6,342.875 2119.22,531.044 2161.5,441.622C2070.87,365.258 1952.63,323.958 1802.77,316.406Z" style="fill:white;"/>
                        <path d="M1784.53,448.377C1787.85,418.774 1846.48,334.813 1883.72,351.006C1640.84,244.191 1645.51,484.316 1784.53,448.377Z" style="fill:rgb(122,122,122);"/>
                    </g>
                    <path d="M2673.27,530.647C2659.07,560.706 2608.04,514.71 2551.7,488.489C2455.37,443.651 2442.12,545.324 2512.19,534.045" style="fill:none;stroke:black;stroke-width:9.93px;stroke-linecap:butt;stroke-linejoin:miter;"/>
                </g>
            </g>
        </g>
    </g>
</svg>
