<?xml version="1.0" encoding="UTF-8" standalone="no"?>
<!DOCTYPE svg PUBLIC "-//W3C//DTD SVG 1.1//EN" "http://www.w3.org/Graphics/SVG/1.1/DTD/svg11.dtd">
<svg width="100%" height="100%" viewBox="0 0 591 591" version="1.1" xmlns="http://www.w3.org/2000/svg" xmlns:xlink="http://www.w3.org/1999/xlink" xml:space="preserve" xmlns:serif="http://www.serif.com/" style="fill-rule:evenodd;clip-rule:evenodd;stroke-linejoin:round;stroke-miterlimit:2;">
    <g id="Plan-de-travail1" serif:id="Plan de travail1" transform="matrix(0.769591,0,0,0.75766,-1096.39,-1565.65)">
        <rect x="1424.64" y="2066.43" width="767.357" height="779.441" style="fill:none;"/>
        <g id="Mobile" transform="matrix(4.55279,0,0,4.62449,-52024.6,-8035.4)">
            <path d="M11864,2289.25L11864,2289.25L11864,2337C11864,2344.04 11858.3,2349.76 11851.2,2349.76L11797,2349.76C11790,2349.76 11784.3,2344.04 11784.3,2337L11784.3,2331.8L11784.4,2331.8L11784.4,2198.5C11785.3,2192.35 11790.6,2187.63 11797,2187.63L11851.2,2187.63C11858.3,2187.63 11864,2193.34 11864,2200.38L11864,2237.07C11864,2237.06 11864,2237.05 11864,2237.05L11864,2273.3L11864,2273.3L11864,2279.31L11864,2279.31L11864,2289.25ZM11843,2191.07L11843,2193.03C11842.9,2195.4 11841,2197.31 11838.6,2197.31L11809.1,2197.31C11806.7,2197.31 11804.8,2195.4 11804.8,2193.03L11804.8,2191.07L11798,2191.07C11792.4,2191.07 11787.9,2195.61 11787.9,2201.21L11787.9,2336.18C11787.9,2341.78 11792.4,2346.32 11798,2346.32L11850.2,2346.32C11855.8,2346.32 11860.3,2341.78 11860.3,2336.18L11860.3,2201.21C11860.3,2195.61 11855.8,2191.07 11850.2,2191.07L11843,2191.07ZM11790.8,2335.51L11790.8,2299.01C11797,2293.63 11807.6,2286.78 11824.1,2306.74C11838.5,2324.1 11857.2,2298.82 11857.2,2298.82L11857.2,2337.15C11856.8,2341.82 11853.5,2343.33 11849.5,2343.69L11797.8,2343.69C11794.1,2343.62 11790.8,2339.57 11790.8,2335.51Z"/>
        </g>
    </g>
</svg>
