<?xml version="1.0" encoding="UTF-8" standalone="no"?>
<!DOCTYPE svg PUBLIC "-//W3C//DTD SVG 1.1//EN" "http://www.w3.org/Graphics/SVG/1.1/DTD/svg11.dtd">
<svg width="100%" height="100%" viewBox="0 0 900 900" version="1.1" xmlns="http://www.w3.org/2000/svg" xmlns:xlink="http://www.w3.org/1999/xlink" xml:space="preserve" xmlns:serif="http://www.serif.com/" style="fill-rule:evenodd;clip-rule:evenodd;stroke-linejoin:round;stroke-miterlimit:2;">
    <g transform="matrix(1,0,0,1,-4348,-272)">
        <g transform="matrix(0.520827,0,0,0.520827,1947.18,419.305)">
            <path d="M5298.03,774.385C5343.91,818.606 5406.29,845.814 5474.98,845.814C5542.45,845.814 5603.83,819.567 5649.48,776.73C5684.96,794.415 5720.97,817.369 5757.54,845.814C5803.36,942.762 5808.93,1046.9 5757.54,1161.21L5192.43,1161.21C5147.19,1040.41 5147.4,935.356 5192.43,845.814C5227.08,816.569 5262.27,792.655 5298.03,774.385ZM5703.8,778.939C5708.14,751.39 5716.55,725.234 5729,700.478C5758.36,675.69 5788.19,655.422 5818.5,639.936C5857.39,677.416 5910.26,700.478 5968.48,700.478C6025.66,700.478 6077.69,678.232 6116.38,641.924C6146.45,656.913 6176.97,676.368 6207.97,700.478C6246.81,782.648 6251.53,870.91 6207.97,967.795L5818.58,967.795C5814.01,922.767 5801.13,879.234 5781.15,836.975L5778.34,831.016L5773.13,826.97C5749.81,808.829 5726.7,792.842 5703.8,778.939ZM5132.72,954.642L4744.28,954.642C4705.93,852.262 4706.11,763.218 4744.28,687.325C4773.64,662.537 4803.47,642.269 4833.77,626.783C4872.66,664.263 4925.54,687.325 4983.76,687.325C5040.94,687.325 5092.97,665.079 5131.65,628.771C5161.73,643.76 5192.24,663.215 5223.24,687.325C5235.92,714.137 5244.96,741.598 5249.88,769.808C5224.51,785.424 5199.42,803.746 5174.6,824.693L5170.28,828.342L5167.74,833.395C5148.72,871.216 5136.98,911.623 5132.72,954.642ZM5474.98,390.727C5585.37,390.727 5674.98,480.344 5674.98,590.727C5674.98,701.11 5585.37,790.727 5474.98,790.727C5364.6,790.727 5274.98,701.11 5274.98,590.727C5274.98,480.344 5364.6,390.727 5474.98,390.727ZM5968.48,314.758C6062.04,314.758 6138,390.715 6138,484.272C6138,577.83 6062.04,653.787 5968.48,653.787C5874.93,653.787 5798.97,577.83 5798.97,484.272C5798.97,390.715 5874.93,314.758 5968.48,314.758ZM4983.76,301.605C5077.32,301.605 5153.27,377.562 5153.27,471.119C5153.27,564.677 5077.32,640.634 4983.76,640.634C4890.2,640.634 4814.24,564.677 4814.24,471.119C4814.24,377.562 4890.2,301.605 4983.76,301.605ZM5080.11,299.105C5094.95,288.575 5109.92,279.425 5125.05,271.699C5157.54,303.015 5201.72,322.284 5250.36,322.284C5298.14,322.284 5341.61,303.696 5373.94,273.36C5399.06,285.884 5424.56,302.139 5450.46,322.284C5456.82,335.741 5462.09,349.393 5466.17,363.254C5359.9,367.31 5272.2,444.355 5251.82,545.638L5166.32,545.638C5175.73,522.648 5180.91,497.485 5180.91,471.119C5180.91,397.29 5140.24,332.884 5080.11,299.105ZM5484.5,363.282C5488.38,349.139 5493.64,335.474 5500.28,322.284C5524.81,301.573 5549.73,284.638 5575.06,271.699C5607.55,303.015 5651.73,322.284 5700.37,322.284C5748.15,322.284 5791.62,303.696 5823.95,273.36C5842.69,282.7 5861.63,294.116 5880.8,307.672C5815.94,339.964 5771.33,406.95 5771.33,484.272C5771.33,505.698 5774.75,526.329 5781.08,545.638L5698.15,545.638C5677.8,444.565 5590.44,367.643 5484.5,363.282ZM5250.36,-0C5328.53,-0 5392,63.465 5392,141.636C5392,219.807 5328.53,283.272 5250.36,283.272C5172.19,283.272 5108.73,219.807 5108.73,141.636C5108.73,63.465 5172.19,-0 5250.36,-0ZM5700.37,-0C5778.55,-0 5842.01,63.465 5842.01,141.636C5842.01,219.807 5778.55,283.272 5700.37,283.272C5622.2,283.272 5558.74,219.807 5558.74,141.636C5558.74,63.465 5622.2,-0 5700.37,-0Z"/>
        </g>
    </g>
</svg>
