<?xml version="1.0" encoding="UTF-8" standalone="no"?>
<!DOCTYPE svg PUBLIC "-//W3C//DTD SVG 1.1//EN" "http://www.w3.org/Graphics/SVG/1.1/DTD/svg11.dtd">
<svg width="100%" height="100%" viewBox="0 0 978 623" version="1.1" xmlns="http://www.w3.org/2000/svg" xmlns:xlink="http://www.w3.org/1999/xlink" xml:space="preserve" xmlns:serif="http://www.serif.com/" style="fill-rule:evenodd;clip-rule:evenodd;stroke-linejoin:round;stroke-miterlimit:2;">
    <g transform="matrix(1,0,0,1,-4062.07,-17909.4)">
        <g transform="matrix(1,0,0,1,266.624,3.89514)">
            <path d="M4261.75,18152.7L4261.75,18099.8L4271.35,18099.8C4274.88,18006 4298.86,17996.6 4318.73,17990.7C4324.84,17988.9 4331.09,17988.2 4335.92,17983.1C4339.61,17979.2 4342.23,17972.8 4344.11,17962.4C4346.42,17949.7 4347.27,17931.8 4346.25,17906.4L4367.63,17905.5C4369.12,17942.8 4366.57,17965.3 4361.94,17979.2C4356.15,17996.7 4347.16,18003.3 4337.37,18007.2C4333.48,18008.8 4329.38,18009.9 4325.24,18011.1C4320.92,18012.3 4316.46,18013.7 4312.41,18017.2C4306.9,18021.9 4302.42,18030.2 4298.87,18045.1C4295.74,18058.2 4293.58,18075.9 4292.72,18099.8L4301.47,18099.8L4301.47,18152.7L4584.86,18152.7L4585.47,18152.7C4688.73,18153 4772.44,18237 4772.44,18340.3C4772.44,18443.8 4688.39,18527.9 4584.86,18527.9C4536.97,18527.9 4493.24,18509.9 4460.07,18480.3L3983.03,18480.3C3879.5,18480.3 3795.44,18396.2 3795.44,18292.7C3795.44,18189.2 3879.5,18105.1 3983.03,18105.1C4030.92,18105.1 4074.65,18123.1 4107.81,18152.7L4261.75,18152.7ZM4551.64,18387.7C4570.11,18369.2 4600.1,18369.2 4618.58,18387.7C4637.05,18406.2 4637.05,18436.2 4618.58,18454.6C4600.1,18473.1 4570.11,18473.1 4551.64,18454.6C4533.17,18436.2 4533.17,18406.2 4551.64,18387.7ZM4013.28,18262.5L4013.28,18192.3L3952.77,18192.3L3952.77,18262.5L3882.62,18262.5L3882.62,18323L3952.77,18323L3952.77,18393.1L4013.28,18393.1L4013.28,18323L4083.43,18323L4083.43,18262.5L4013.28,18262.5ZM4632.27,18307.1C4650.74,18288.6 4680.73,18288.6 4699.2,18307.1C4717.68,18325.5 4717.68,18355.5 4699.2,18374C4680.73,18392.5 4650.74,18392.5 4632.27,18374C4613.8,18355.5 4613.8,18325.5 4632.27,18307.1ZM4470.51,18306.6C4488.98,18288.1 4518.98,18288.1 4537.45,18306.6C4555.92,18325 4555.92,18355 4537.45,18373.5C4518.98,18392 4488.98,18392 4470.51,18373.5C4452.04,18355 4452.04,18325 4470.51,18306.6ZM4180.62,18301.4L4180.62,18331.6L4261.75,18331.6L4261.75,18301.4L4180.62,18301.4ZM4301.47,18301.4L4301.47,18331.6L4382.6,18331.6L4382.6,18301.4L4301.47,18301.4ZM4551.14,18225.9C4569.61,18207.5 4599.61,18207.5 4618.08,18225.9C4636.55,18244.4 4636.55,18274.4 4618.08,18292.9C4599.61,18311.3 4569.61,18311.3 4551.14,18292.9C4532.67,18274.4 4532.67,18244.4 4551.14,18225.9Z"/>
        </g>
    </g>
</svg>
