<?xml version="1.0" encoding="UTF-8" standalone="no"?>
<!DOCTYPE svg PUBLIC "-//W3C//DTD SVG 1.1//EN" "http://www.w3.org/Graphics/SVG/1.1/DTD/svg11.dtd">
<svg width="100%" height="100%" viewBox="0 0 900 900" version="1.1" xmlns="http://www.w3.org/2000/svg" xmlns:xlink="http://www.w3.org/1999/xlink" xml:space="preserve" xmlns:serif="http://www.serif.com/" style="fill-rule:evenodd;clip-rule:evenodd;stroke-linejoin:round;stroke-miterlimit:2;">
    <g transform="matrix(1,0,0,1,-2289,-1492)">
        <g id="colored">
        </g>
        <path id="backend" d="M2521.34,2201.86L2497.3,2153.79L2505.51,2153.79L2505.51,2119.18L2538.38,2119.18L2538.38,2153.79L2546.59,2153.79L2522.55,2201.86C2566.15,2202.31 2601.42,2237.85 2601.42,2281.56C2601.42,2325.55 2565.7,2361.26 2521.72,2361.26C2477.73,2361.26 2442.01,2325.55 2442.01,2281.56C2442.01,2237.7 2477.52,2202.06 2521.34,2201.86ZM2963.89,2201.88L2939.85,2153.79L2948.06,2153.79L2948.06,2119.18L2980.92,2119.18L2980.92,2153.79L2989.14,2153.79L2965.1,2201.86C2965.3,2201.86 2965.5,2201.86 2965.7,2201.86C3009.69,2201.86 3045.4,2237.57 3045.4,2281.56C3045.4,2325.55 3009.69,2361.26 2965.7,2361.26C2921.71,2361.26 2885.99,2325.55 2885.99,2281.56C2885.99,2238.17 2920.74,2202.84 2963.89,2201.88ZM2743.08,2201.86L2719.05,2153.79L2727.26,2153.79L2727.26,2119.18L2760.12,2119.18L2760.12,2153.79L2768.34,2153.79L2744.3,2201.87C2787.6,2202.66 2822.51,2238.07 2822.51,2281.56C2822.51,2325.55 2786.8,2361.26 2742.81,2361.26C2698.82,2361.26 2663.11,2325.55 2663.11,2281.56C2663.11,2237.57 2698.82,2201.86 2742.81,2201.86L2743.08,2201.86ZM2521.72,2220.95C2555.16,2220.95 2582.32,2248.11 2582.32,2281.56C2582.32,2315.01 2555.16,2342.16 2521.72,2342.16C2488.27,2342.16 2461.11,2315.01 2461.11,2281.56C2461.11,2248.11 2488.27,2220.95 2521.72,2220.95ZM2965.7,2220.95C2999.15,2220.95 3026.3,2248.11 3026.3,2281.56C3026.3,2315.01 2999.15,2342.16 2965.7,2342.16C2932.25,2342.16 2905.09,2315.01 2905.09,2281.56C2905.09,2248.11 2932.25,2220.95 2965.7,2220.95ZM2742.81,2220.95C2776.26,2220.95 2803.42,2248.11 2803.42,2281.56C2803.42,2315.01 2776.26,2342.16 2742.81,2342.16C2709.36,2342.16 2682.21,2315.01 2682.21,2281.56C2682.21,2248.11 2709.36,2220.95 2742.81,2220.95ZM2598.88,2051.38L2445.19,2051.38L2445.19,2114.88L2598.88,2114.88L2598.88,2051.38ZM2820.58,2051.38L2666.89,2051.38L2666.89,2114.88L2820.58,2114.88L2820.58,2051.38ZM3041.73,2051.38L2888.04,2051.38L2888.04,2114.88L3041.73,2114.88L3041.73,2051.38ZM2598.79,1979.27L2445.1,1979.27L2445.1,2042.78L2598.79,2042.78L2598.79,1979.27ZM2820.49,1979.27L2666.8,1979.27L2666.8,2042.78L2820.49,2042.78L2820.49,1979.27ZM3041.64,1979.27L2887.95,1979.27L2887.95,2042.78L3041.64,2042.78L3041.64,1979.27ZM2598.88,1907.17L2445.19,1907.17L2445.19,1970.67L2598.88,1970.67L2598.88,1907.17ZM2820.58,1907.17L2666.89,1907.17L2666.89,1970.67L2820.58,1970.67L2820.58,1907.17ZM3041.73,1907.17L2888.04,1907.17L2888.04,1970.67L3041.73,1970.67L3041.73,1907.17ZM2598.88,1834.91L2445.19,1834.91L2445.19,1898.41L2598.88,1898.41L2598.88,1834.91ZM2820.58,1834.91L2666.89,1834.91L2666.89,1898.41L2820.58,1898.41L2820.58,1834.91ZM3041.73,1834.91L2888.04,1834.91L2888.04,1898.41L3041.73,1898.41L3041.73,1834.91ZM2506.46,1780.1L2506.46,1726.72L2727.26,1728.1L2727.26,1702.19C2691.78,1694.97 2665.04,1663.57 2665.04,1625.98C2665.04,1583.06 2699.89,1548.21 2742.81,1548.21C2785.73,1548.21 2820.58,1583.06 2820.58,1625.98C2820.58,1662.95 2794.72,1693.93 2760.12,1701.81L2760.12,1729.11L2980.92,1727.74L2980.92,1781.11L2989.14,1781.11L2964.49,1830.41L2939.85,1781.11L2948.06,1781.11L2948.06,1760.8L2760.12,1761.97L2760.12,1780.1L2768.34,1780.1L2743.69,1829.39L2719.05,1780.1L2727.26,1780.1L2727.26,1760.96L2539.32,1759.79L2539.32,1780.1L2547.54,1780.1L2522.89,1829.39L2498.24,1780.1L2506.46,1780.1Z"/>
    </g>
</svg>
