<?xml version="1.0" encoding="UTF-8" standalone="no"?>
<!DOCTYPE svg PUBLIC "-//W3C//DTD SVG 1.1//EN" "http://www.w3.org/Graphics/SVG/1.1/DTD/svg11.dtd">
<svg width="100%" height="100%" viewBox="0 0 900 900" version="1.1" xmlns="http://www.w3.org/2000/svg" xmlns:xlink="http://www.w3.org/1999/xlink" xml:space="preserve" xmlns:serif="http://www.serif.com/" style="fill-rule:evenodd;clip-rule:evenodd;stroke-linejoin:round;stroke-miterlimit:2;">
    <g transform="matrix(1,0,0,1,-3264,-297)">
        <g transform="matrix(1.19741,0,0,1.19741,-1543.39,1484.22)">
            <path d="M4625.9,-812.677L4681.36,-812.677L4681.36,-383.238L4107.06,-383.238L4107.06,-812.677L4162.52,-812.677L4162.52,-751.358L4236.77,-751.358L4236.77,-812.677L4292.23,-812.677L4292.23,-751.358L4366.48,-751.358L4366.48,-812.677L4421.94,-812.677L4421.94,-751.358L4496.19,-751.358L4496.19,-812.677L4551.65,-812.677L4551.65,-751.358L4625.9,-751.358L4625.9,-812.677ZM4132.06,-725.81L4132.06,-408.238L4656.36,-408.238L4656.36,-725.81L4132.06,-725.81ZM4226.7,-501.501L4176.7,-501.501L4176.7,-451.501L4226.7,-451.501L4226.7,-501.501ZM4322.95,-501.501L4272.95,-501.501L4272.95,-451.501L4322.95,-451.501L4322.95,-501.501ZM4419.21,-501.501L4369.21,-501.501L4369.21,-451.501L4419.21,-451.501L4419.21,-501.501ZM4515.47,-501.501L4465.47,-501.501L4465.47,-451.501L4515.47,-451.501L4515.47,-501.501ZM4611.72,-501.501L4561.72,-501.501L4561.72,-451.501L4611.72,-451.501L4611.72,-501.501ZM4226.7,-591.712L4176.7,-591.712L4176.7,-541.712L4226.7,-541.712L4226.7,-591.712ZM4322.95,-591.712L4272.95,-591.712L4272.95,-541.712L4322.95,-541.712L4322.95,-591.712ZM4419.21,-591.712L4369.21,-591.712L4369.21,-541.712L4419.21,-541.712L4419.21,-591.712ZM4515.47,-591.712L4465.47,-591.712L4465.47,-541.712L4515.47,-541.712L4515.47,-591.712ZM4611.72,-591.712L4561.72,-591.712L4561.72,-541.712L4611.72,-541.712L4611.72,-591.712ZM4226.7,-681.923L4176.7,-681.923L4176.7,-631.923L4226.7,-631.923L4226.7,-681.923ZM4322.95,-681.923L4272.95,-681.923L4272.95,-631.923L4322.95,-631.923L4322.95,-681.923ZM4419.21,-681.923L4369.21,-681.923L4369.21,-631.923L4419.21,-631.923L4419.21,-681.923ZM4515.47,-681.923L4465.47,-681.923L4465.47,-631.923L4515.47,-631.923L4515.47,-681.923ZM4611.72,-681.923L4561.72,-681.923L4561.72,-631.923L4611.72,-631.923L4611.72,-681.923ZM4220.61,-855.873L4176.57,-855.873L4176.57,-764.358L4220.61,-764.358L4220.61,-855.873ZM4350.68,-855.873L4306.64,-855.873L4306.64,-764.358L4350.68,-764.358L4350.68,-855.873ZM4480.74,-855.873L4436.7,-855.873L4436.7,-764.358L4480.74,-764.358L4480.74,-855.873ZM4610.81,-855.873L4566.76,-855.873L4566.76,-764.358L4610.81,-764.358L4610.81,-855.873Z"/>
        </g>
    </g>
</svg>
