<?xml version="1.0" encoding="UTF-8" standalone="no"?>
<!DOCTYPE svg PUBLIC "-//W3C//DTD SVG 1.1//EN" "http://www.w3.org/Graphics/SVG/1.1/DTD/svg11.dtd">
<svg width="100%" height="100%" viewBox="0 0 900 900" version="1.1" xmlns="http://www.w3.org/2000/svg" xmlns:xlink="http://www.w3.org/1999/xlink" xml:space="preserve" xmlns:serif="http://www.serif.com/" style="fill-rule:evenodd;clip-rule:evenodd;stroke-linejoin:round;stroke-miterlimit:2;">
    <g transform="matrix(1,0,0,1,-4366,-1492)">
        <g id="devops" transform="matrix(2.03971,-3.77427e-17,3.77427e-17,-2.34791,-18536.9,6757.81)">
            <path d="M11312.1,2063.96C11316.6,2083.19 11339.8,2101.22 11370.9,2093.7C11373,2093.18 11375.2,2092.38 11377.3,2091.35L11386,2117.51L11412.1,2128.39C11402.2,2135.1 11392.3,2139.83 11382.6,2142.17C11312.6,2159.1 11266.1,2107.88 11261.7,2063.73L11287.6,2052.41L11312.1,2063.96ZM11641.9,2063.18C11636,2103.65 11598.8,2152.65 11537.4,2144.11C11525.2,2142.41 11511.8,2135.95 11497.9,2126.31L11523.4,2113.44L11529.8,2088.39C11534.8,2091.68 11539.6,2094.07 11544.3,2094.72C11568.9,2098.15 11585.1,2081.5 11590.7,2064.83L11618.9,2052.41L11641.9,2063.18ZM11412.5,1979.63C11414,1980.72 11415.5,1981.86 11417,1983.04C11428.9,1992.3 11441.2,2004.01 11453.6,2016.53C11465.4,2004.24 11477.5,1992.81 11489.7,1983.48L11499.4,2011.32L11522.4,2020.53C11519.1,2022.91 11515.9,2025.55 11512.6,2028.35C11504.4,2035.4 11496.3,2043.58 11488.3,2052.17C11497.7,2061.74 11507.1,2070.75 11516.2,2078.24L11509.9,2102.62L11483.9,2115.76C11474.5,2108.18 11465.1,2099.45 11455.6,2090.03L11454.8,2089.18C11445.2,2099.55 11435.8,2109.25 11426.4,2117.33L11398.7,2105.76L11390.8,2082.18C11393.4,2080.08 11395.9,2077.79 11398.5,2075.39C11405.6,2068.82 11412.8,2061.31 11420,2053.4C11410.7,2043.98 11401.5,2035.03 11392.5,2027.38C11389.4,2024.74 11386.3,2022.24 11383.4,2019.97L11405,2009.08L11412.5,1979.63ZM11503.1,1974.17C11513.4,1967.78 11523.7,1963.17 11534.1,1961.07C11609.9,1945.66 11639.5,2008.31 11642.4,2046.08L11619.1,2035.14L11592.4,2046.89C11590,2029.41 11576.9,2003.26 11544,2009.93C11542.8,2010.17 11541.6,2010.48 11540.4,2010.85L11511.9,1999.39L11503.1,1974.17ZM11262,2046.43C11267.6,1998.4 11309.9,1945.77 11374.1,1960.48C11382,1962.27 11390.2,1965.7 11398.6,1970.53L11391.5,1998.26L11367.4,2010.43C11365.9,2009.87 11364.5,2009.42 11363,2009.09C11334.8,2002.62 11316.9,2025.06 11312.4,2046.72L11287.9,2035.14L11262,2046.43Z"/>
        </g>
    </g>
</svg>
