<?xml version="1.0" encoding="UTF-8" standalone="no"?>
<!DOCTYPE svg PUBLIC "-//W3C//DTD SVG 1.1//EN" "http://www.w3.org/Graphics/SVG/1.1/DTD/svg11.dtd">
<svg width="100%" height="100%" viewBox="0 0 1080 1080" version="1.1"
    xmlns="http://www.w3.org/2000/svg"
    xmlns:xlink="http://www.w3.org/1999/xlink" xml:space="preserve"
    xmlns:serif="http://www.serif.com/" style="fill-rule:evenodd;clip-rule:evenodd;stroke-linejoin:round;stroke-miterlimit:2;">
    <rect id="Artboard1" x="0" y="0" width="1080" height="1080" style="fill:none;"/>
    <g id="Artboard11" serif:id="Artboard1">
        <g transform="matrix(1.74401,0,0,1.74401,-6267.94,-17654.5)">
            <path d="M3778.19,10347.9L3778.48,10348L3778.82,10347.9C3780.32,10347.9 3781.86,10347.9 3783.43,10347.8L3783.43,10347.8C3778.57,10369.6 3776.97,10395.6 3778.73,10426.1C3774.69,10425.1 3771,10426.9 3769.23,10429.5C3768.09,10431.1 3767.7,10433.1 3768.22,10434.9C3768.3,10435.1 3768.41,10435.3 3768.57,10435.5C3769.07,10436.2 3769.39,10437.2 3769.65,10438.3C3770.11,10440.5 3770.27,10443.1 3770.27,10446C3770.28,10453.5 3769.24,10462.1 3769.44,10465.5C3769.45,10465.6 3769.46,10465.7 3769.48,10465.8C3771.76,10477.8 3772.91,10488.9 3773.58,10499.4C3773.59,10499.6 3773.65,10499.9 3773.75,10500.1C3779.1,10512.2 3783.84,10518.8 3788.18,10522.8C3797.22,10564.7 3824.7,10612.6 3854.71,10644.6C3875.25,10666.5 3897.06,10680.9 3914.95,10681.4C3915.51,10681.4 3916.06,10681.2 3916.47,10680.8C3916.62,10680.7 3916.75,10680.5 3916.86,10680.3C3933.16,10679.5 3949.82,10673.7 3964.72,10664.3C3967.99,10662.2 3975.63,10659.5 3975.63,10659.5C3976.05,10659.4 3976.42,10659.1 3976.67,10658.7C3976.67,10658.7 3981.18,10652 3983.97,10649.5C4017.98,10618.5 4042.93,10568.2 4045.77,10517.5C4049,10513.5 4052.47,10507.6 4056.25,10499.1C4056.35,10498.9 4056.41,10498.6 4056.43,10498.4C4057.09,10487.9 4058.24,10476.8 4060.53,10464.8C4060.54,10464.7 4060.56,10464.6 4060.56,10464.5C4060.77,10461.1 4059.72,10452.5 4059.73,10445C4059.74,10442.1 4059.89,10439.5 4060.36,10437.3C4060.61,10436.2 4060.93,10435.2 4061.44,10434.5C4061.59,10434.3 4061.71,10434.1 4061.78,10433.9C4062.36,10431.9 4061.82,10429.7 4060.4,10428C4059.12,10426.4 4057.14,10425.2 4054.82,10424.9C4059.42,10412 4065.29,10392.7 4065.29,10392.7C4065.44,10392.3 4065.41,10391.8 4065.22,10391.3C4065.22,10391.3 4061.29,10382.1 4058.85,10374.1C4057.86,10370.8 4058.04,10368.3 4058.09,10365.8C4058.14,10362.8 4058.04,10359.8 4056.35,10356.1L4056.29,10355.9C4056.65,10355.6 4056.89,10355.2 4056.98,10354.7C4064.16,10314.8 4060.61,10281.2 4046.05,10253.4C4031.49,10225.6 4005.89,10203.7 3968.76,10187.2C3968.62,10187.1 3968.47,10187.1 3968.32,10187.1C3903.29,10174.2 3858.61,10200 3829.04,10253C3782.47,10239.3 3751.08,10249.3 3734.82,10265.4C3714.86,10285.3 3715.24,10315.1 3735.38,10333.1C3744.86,10341.6 3759.08,10347.6 3778.19,10347.9ZM3917.1,10556.2C3899.26,10558.7 3878.12,10560.6 3858.73,10565.8C3858.89,10583.3 3862.92,10596.2 3871.88,10604.4C3880.72,10612.5 3894.23,10616 3913.12,10614.9C3913.23,10614.7 3913.38,10614.5 3913.57,10614.3C3914,10613.9 3914.57,10613.7 3915.16,10613.8C3935.2,10615.2 3949.27,10611.9 3958.31,10603.6C3967.07,10595.5 3970.98,10582.8 3971.26,10565.7C3953.5,10559.2 3934.12,10556.2 3917.1,10556.2ZM3915,10608C3922.23,10609.7 3930.14,10605.7 3935.42,10601.4C3936.11,10600.8 3936.37,10599.9 3936.09,10599.1C3935.8,10598.2 3935.03,10597.7 3934.14,10597.6C3930.81,10597.6 3927.26,10597.4 3924.05,10596.5C3921.17,10595.7 3918.57,10594.3 3916.77,10591.6C3916.51,10591.2 3916.1,10590.9 3915.62,10590.8C3914.72,10590.5 3913.76,10590.8 3913.24,10591.6C3911.44,10594.3 3908.84,10595.7 3905.95,10596.5C3902.74,10597.4 3899.19,10597.6 3895.86,10597.6C3894.98,10597.7 3894.2,10598.2 3893.91,10599.1C3893.63,10599.9 3893.89,10600.8 3894.58,10601.4C3899.86,10605.7 3907.77,10609.7 3915,10608ZM3975.46,10563.8C3978.09,10575.4 3981.72,10583.4 3985.61,10588C3987.84,10590.6 3990.07,10592 3992.23,10592.2C3994.18,10592.3 3995.95,10591.3 3997.43,10589.4C4000.22,10585.7 4001.97,10579.3 4002.05,10570.4C4002.06,10569.5 4002.67,10568.7 4003.57,10568.4C4013.32,10565.5 4020.43,10556.8 4025.75,10545.9C4034.05,10529 4037.91,10507 4039.65,10492.4C4039.65,10492.4 4040.59,10477.6 4040.59,10477.6C4040.93,10464.4 4041.1,10450.3 4040.77,10436.8C4037.89,10437.4 4034.94,10438.1 4033.06,10439.1C4033.92,10458 4030.67,10472.6 4022.71,10482.4C4014.5,10492.6 4001.25,10497.9 3981.95,10497.4C3968.75,10497.7 3956.81,10496 3946.97,10489.2C3937.18,10482.5 3929.4,10470.7 3924.74,10450.4C3924.04,10448.8 3922.8,10448.2 3921.02,10447.8C3919.39,10447.5 3917.39,10447.4 3914.99,10447.2C3912.61,10447.4 3910.61,10447.5 3908.98,10447.8C3907.2,10448.2 3905.96,10448.8 3905.26,10450.4C3900.6,10470.7 3892.82,10482.5 3883.03,10489.2C3873.2,10496 3861.25,10497.7 3848.06,10497.4C3828.76,10497.9 3815.51,10492.6 3807.29,10482.4C3799.33,10472.6 3796.08,10458 3796.94,10439.1C3795.07,10438.1 3792.13,10437.4 3789.26,10436.8C3788.9,10450.7 3789.07,10465.1 3789.42,10478.6C3789.42,10478.6 3790.35,10493.4 3790.35,10493.4C3792.09,10508 3795.95,10530 3804.25,10546.9C3809.57,10557.8 3816.68,10566.5 3826.43,10569.4C3827.29,10569.7 3827.9,10570.4 3827.95,10571.3C3828.34,10577.7 3829.83,10582.6 3832.03,10585.8C3833.89,10588.5 3836.23,10589.9 3838.79,10589.7C3840.97,10589.5 3843.2,10588.1 3845.35,10585.8C3849.04,10581.7 3852.35,10574.8 3854.54,10564.8L3854.55,10564.7C3854.39,10564.1 3854.54,10563.4 3854.97,10562.9C3868.08,10547 3889.05,10535.6 3915.91,10537.3C3941.97,10535.6 3962.32,10547 3975.03,10562.9L3975.25,10563.2L3975.41,10563.6L3975.46,10563.8ZM3868.31,10568.1C3867.2,10568 3866.23,10568.8 3866.09,10570C3865.96,10571.1 3866.7,10572.1 3867.8,10572.3C3883.17,10575.2 3898.72,10576.7 3914.44,10576.5C3930.16,10576.3 3946.05,10574.5 3962.14,10571C3963.23,10570.8 3963.94,10569.7 3963.78,10568.6C3963.61,10567.5 3962.61,10566.7 3961.5,10566.8C3930.44,10569.5 3899.38,10569.9 3868.31,10568.1ZM3916.85,10556.2L3917.07,10556.2L3916.87,10556.2L3916.85,10556.2ZM3916.85,10554.1L3916.85,10556.2L3916.85,10556.2L3916.71,10554.1L3916.85,10554.1ZM3915.11,10554.3L3915.19,10554.3C3915.77,10554.9 3916.71,10556.1 3916.84,10556.2C3916.75,10556.2 3916.22,10556.1 3915.72,10555.8C3915.27,10555.6 3914.84,10555.1 3914.75,10554.4L3915.11,10554.3ZM3930.07,10525.2C3926.36,10526.6 3923.39,10528.4 3922.11,10529.7C3920.81,10531 3920.76,10532.4 3921.15,10533.3C3921.51,10534.1 3922.5,10535 3924.3,10535.2C3926.22,10535.3 3929.65,10534.7 3933.34,10533.3C3937.06,10532 3940.03,10530.2 3941.31,10528.9C3942.61,10527.5 3942.66,10526.1 3942.27,10525.2C3941.91,10524.4 3940.92,10523.5 3939.11,10523.4C3937.2,10523.2 3933.77,10523.9 3930.07,10525.2L3930.07,10525.2ZM3899.93,10525.2C3896.24,10523.9 3892.8,10523.2 3890.89,10523.4C3889.08,10523.5 3888.1,10524.4 3887.73,10525.2C3887.34,10526.1 3887.4,10527.5 3888.7,10528.9C3889.97,10530.2 3892.95,10532 3896.66,10533.3C3900.35,10534.7 3903.79,10535.3 3905.7,10535.2C3907.5,10535 3908.49,10534.1 3908.85,10533.3C3909.25,10532.4 3909.19,10531 3907.89,10529.7C3906.61,10528.4 3903.64,10526.6 3899.93,10525.2L3899.93,10525.2ZM3924.62,10477.3C3924.07,10476.5 3922.99,10476.1 3922.04,10476.5C3921.1,10476.9 3920.55,10477.8 3920.74,10478.9C3923.69,10494 3925.15,10503.5 3926.14,10509.4C3926.76,10513.1 3927.22,10515.5 3927.72,10517C3928.21,10518.4 3928.82,10519.3 3929.48,10519.8C3929.84,10520.2 3930.42,10520.6 3931.19,10520.8C3933.01,10521.4 3936.01,10521.6 3938.12,10519.8C3939.74,10518.4 3941.06,10515.7 3940.28,10510.6C3939.35,10504.5 3935.24,10494.3 3924.62,10477.3ZM4024.07,10454.4C4024.06,10454.5 4024.05,10454.6 4024.05,10454.6C4023.75,10464.4 4021.13,10471.9 4016.28,10477.5C4008.91,10486.1 3996.54,10490 3980,10490.2C3966.27,10490.1 3955.56,10486.8 3948.03,10479.8C3940.51,10472.8 3936.23,10462.4 3935.15,10448.3C3935.26,10444.5 3937.98,10441.5 3942.51,10439.1C3950.41,10434.8 3963.56,10432.3 3980.12,10431.2C3992,10430.6 4002.26,10430.6 4010.04,10432.5C4015.4,10433.7 4019.53,10435.8 4021.99,10439.3C4024.46,10442.9 4025.18,10447.7 4024.07,10454.4ZM3805.96,10454.6C3805.95,10454.6 3805.95,10454.5 3805.93,10454.4C3804.82,10447.7 3805.54,10442.9 3808.01,10439.3C3810.47,10435.8 3814.6,10433.7 3819.97,10432.5C3827.74,10430.6 3838,10430.6 3849.89,10431.2C3866.44,10432.3 3879.59,10434.8 3887.49,10439.1C3892.02,10441.5 3894.74,10444.5 3894.85,10448.3C3893.77,10462.3 3889.49,10472.8 3881.98,10479.8C3874.45,10486.8 3863.74,10490.1 3850.03,10490.2C3833.47,10490 3821.1,10486.1 3813.73,10477.5C3808.87,10471.9 3806.25,10464.4 3805.96,10454.6ZM3972.16,10436.7C3967.99,10436.7 3964.32,10437.9 3962.03,10439.8C3960.16,10441.3 3959.15,10443.2 3959.15,10445.3C3959.15,10447.3 3960.16,10449.2 3962.03,10450.7C3964.32,10452.6 3967.99,10453.9 3972.16,10453.9C3976.32,10453.9 3979.99,10452.6 3982.28,10450.7C3984.15,10449.2 3985.16,10447.3 3985.16,10445.3C3985.16,10443.2 3984.15,10441.3 3982.28,10439.8C3979.99,10437.9 3976.32,10436.7 3972.16,10436.7ZM3856.57,10436.7C3852.41,10436.7 3848.74,10437.9 3846.45,10439.8C3844.58,10441.3 3843.56,10443.2 3843.56,10445.3C3843.56,10447.3 3844.58,10449.2 3846.45,10450.7C3848.74,10452.6 3852.41,10453.9 3856.57,10453.9C3860.74,10453.9 3864.41,10452.6 3866.7,10450.7C3868.57,10449.2 3869.58,10447.3 3869.58,10445.3C3869.58,10443.2 3868.57,10441.3 3866.7,10439.8C3864.41,10437.9 3860.74,10436.7 3856.57,10436.7ZM3914.82,10314.3L3917.81,10316C3917.81,10316 3920.97,10317.8 3920.97,10317.8C3930.93,10328 3944.86,10350.7 3950.1,10359.7C3950.56,10360.6 3951.04,10361.5 3951.54,10362.4C3952.2,10363.5 3952.62,10364 3952.67,10364C3953.43,10364.7 3954.13,10364.5 3954.47,10364.5C3955.14,10364.3 3955.68,10364 3956,10363.2C3956.06,10363.1 3956.41,10362.5 3955.98,10361.5C3955.87,10361.2 3955.11,10359.9 3953.84,10357.7C3950.76,10351.3 3948.73,10342.2 3948.38,10333C3960.76,10339.6 3972.26,10345.3 3982.6,10349.3C4002.01,10356.8 4017.95,10358.1 4029.46,10351.6C4032.27,10361.5 4034.17,10372.4 4034.73,10383.8C4034.74,10384 4034.77,10384.1 4034.82,10384.3C4037.94,10394.6 4039.57,10409.2 4040.35,10425.1C4040.35,10425.1 4037.32,10425.2 4037.32,10425.2C4034,10424.9 4029.99,10425.4 4026.9,10425.1C4026.08,10425.1 4025.27,10425 4024.47,10424.9C4020.76,10419.6 4014.64,10415.4 4003.37,10413C3992.12,10410.6 3975.53,10410 3950.68,10411.9C3949.91,10412 3949.23,10412.4 3948.91,10413.1L3942.24,10427.9C3941.96,10428.5 3942,10429.2 3942.33,10429.8C3939.82,10430.5 3937.31,10431.4 3934.79,10432.2C3928.98,10434.3 3922.05,10434 3915.02,10434.3C3907.98,10434 3901.03,10434.3 3895.22,10432.2C3892.73,10431.4 3890.26,10430.6 3887.79,10429.8C3888.01,10429.3 3888.01,10428.7 3887.76,10428.1L3881.09,10413.4C3880.77,10412.7 3880.1,10412.2 3879.33,10412.2C3854.71,10410.3 3838.19,10410.8 3826.95,10413.2C3815.69,10415.5 3809.51,10419.7 3805.75,10424.9C3804.87,10425 3803.99,10425 3803.1,10425.1C3800.01,10425.4 3796,10424.9 3792.68,10425.2C3792.68,10425.2 3789.7,10425.1 3789.7,10425.1C3790.5,10409.6 3792.13,10395.4 3795.18,10385.3C3795.23,10385.1 3795.26,10385 3795.27,10384.8C3796.68,10356.4 3806.36,10331.1 3818.02,10315.5C3818.02,10315.5 3824.57,10310 3824.57,10310C3825.33,10309.4 3825.53,10308.3 3825.12,10307.5C3829.81,10303.1 3834.57,10300.4 3839.06,10299.9C3866.5,10308.7 3891.49,10316.2 3914.82,10314.3ZM3830.78,10258.2C3911.76,10266.9 3976.88,10291.7 4027.91,10333.4C4024.88,10338.8 4021.12,10342.2 4016.62,10343.9C4011.64,10345.8 4005.82,10345.6 3999.23,10343.9C3985.26,10340.5 3968.09,10330.6 3948.36,10318.5C3915.16,10298.2 3874.88,10271.7 3830.78,10258.2L3830.78,10258.2ZM3794.44,10315.4C3793.85,10316.6 3793.27,10317.8 3792.71,10319.1C3792.71,10319.1 3780.64,10329.2 3780.64,10329.2C3779.73,10329.2 3778.83,10329.2 3777.95,10329.2C3777.95,10329.2 3794.44,10315.4 3794.44,10315.4L3794.44,10315.4ZM3823.77,10270.8C3824.42,10271 3825.07,10271.2 3825.73,10271.4C3825.72,10271.4 3760.29,10326.3 3760.29,10326.3C3759.66,10326.1 3759.04,10325.9 3758.44,10325.6C3758.44,10325.6 3823.76,10270.8 3823.76,10270.8L3823.77,10270.8ZM3805.14,10266.5C3805.88,10266.6 3806.62,10266.7 3807.38,10266.9C3807.38,10266.9 3746.51,10317.9 3746.51,10317.9C3746.1,10317.5 3745.71,10317.1 3745.33,10316.6C3745.33,10316.6 3805.14,10266.5 3805.14,10266.5L3805.14,10266.5ZM3915.94,10312.5L3915,10312L3915,10312.2L3914.91,10312.2L3914.99,10314.1L3915,10314.1L3915.09,10313.9C3915.25,10313.6 3915.58,10313 3915.94,10312.5ZM3916.54,10312.8C3916.11,10313.3 3915.55,10313.8 3915.23,10314.1C3915.92,10314 3916.52,10313.6 3916.85,10313L3916.54,10312.8ZM3785.82,10265L3739.29,10304C3739.17,10303.4 3739.08,10302.7 3739.01,10302C3739.01,10302 3782.97,10265.1 3782.97,10265.1C3783.91,10265.1 3784.86,10265 3785.82,10265L3785.82,10265Z"/>
        </g>
    </g>
</svg>
